<?xml version="1.0" standalone="yes"?>
<svg xmlns="http://www.w3.org/2000/svg" width="512" height="512">
<path style="fill:#ffffff; stroke:none;" d="M0 0L0 512L512 512L512 0L0 0z"/>
<path style="fill:#000000; stroke:none;" d="M143 144L245 144L245 153L119 153C95.4156 153 71.3889 151.174 52 167.326C22.0103 192.307 17.1898 237.583 20.831 274C21.8842 284.534 23.3738 294.888 26.6698 305C31.8546 320.907 40.336 336.076 54 346.239C78.8637 364.733 113.882 359 143 359L143 401C143 421.791 143.158 439.827 156.669 457C167.622 470.922 184.353 479.605 201 484.717C235.455 495.298 276.545 495.298 311 484.717C327.708 479.586 344.331 470.981 355.331 457C374.91 432.115 369 397.673 369 368L267 368L267 359L393 359C416.584 359 440.611 360.826 460 344.674C489.99 319.693 494.81 274.417 491.169 238C490.116 227.466 488.626 217.112 485.33 207C480.145 191.093 471.664 175.924 458 165.761C433.104 147.243 398.16 153 369 153L369 109C369 90.1588 369.051 72.7839 357.1 57C330.584 21.978 277.469 16.914 237 20.8302C225.101 21.9817 213.483 23.4216 202 26.9761C184.91 32.2662 167.966 40.6407 156.669 55C137.09 79.8853 143 114.327 143 144z"/>
<path style="fill:#ffffff; stroke:none;" d="M164 122L267 122L267 175L129 175C109.958 175 85.4029 170.511 69 182.044C43.7719 199.783 40.7348 236.006 41.9606 264C42.441 274.969 43.5625 285.403 46.7207 296C50.5327 308.791 57.0924 321.139 68 329.239C79.1358 337.509 90.822 337 104 337L143 337C143 321.418 140.434 303.255 143.669 288C144.781 282.757 146.791 277.74 149.262 273C168.624 235.858 217.345 245 252 245L301 245C309.016 245 318.249 246.258 326 243.956C338.629 240.206 346.553 228.761 347.829 216C348.944 204.861 348 193.193 348 182L348 117C348 96.3102 349.152 78.477 332.999 63.0401C323.332 53.8016 309.848 48.6938 297 45.6543C286.432 43.1544 275.806 42.2501 265 41.9854C233.715 41.2188 192.399 42.9271 171.927 71C161.262 85.6266 164 104.963 164 122z"/>
<path style="fill:#000000; stroke:none;" d="M201 71.4676C181.17 75.1843 177.453 104.69 197 111.867C200.688 113.221 205.148 113.348 209 112.671C235.721 107.977 227.377 66.5237 201 71.4676z"/>
<path style="fill:#ffffff; stroke:none;" d="M369 175C369 192.323 371.688 212.182 367.079 229C365.712 233.991 363.531 238.712 360.64 243C345.458 265.524 322.614 267 298 267L260 267L211 267C202.984 267 193.751 265.742 186 268.044C173.371 271.794 165.447 283.239 164.171 296C163.023 307.465 164 319.479 164 331L164 398C164 416.144 163.196 433.116 177.039 446.961C187.47 457.392 201.845 463.104 216 466.349C243.102 472.561 273.053 472.275 300 465.37C315.222 461.47 330.617 453.967 340.073 441C350.738 426.373 348 407.037 348 390L245 390L245 337L383 337C402.042 337 426.597 341.489 443 329.956C468.228 312.217 471.265 275.994 470.039 248C469.559 237.031 468.437 226.597 465.279 216C461.467 203.209 454.908 190.861 444 182.761C432.864 174.491 421.178 175 408 175L369 175z"/>
<path style="fill:#000000; stroke:none;" d="M302 399.529C275.562 405.641 285.873 446.349 312 440.319C332.047 435.693 333.874 404.505 313 399.532C309.547 398.71 305.455 398.731 302 399.529z"/>
</svg>
