<?xml version="1.0" standalone="yes"?>
<svg xmlns="http://www.w3.org/2000/svg" width="270" height="187">
<path style="fill:#ffffff; stroke:none;" d="M0 0L0 168C10.5449 167.964 19.4286 160.873 30 162C28.1902 158.84 22.0705 154.955 22.6312 151.059C23.1164 147.686 27.3616 147.345 29.8302 146.317C33.022 144.988 37.9253 141.908 39.4005 138.674C42.159 132.628 41.1395 121.306 39.6867 115C38.7228 110.816 36.4999 108.504 37 104C33.9794 103.695 30.7588 102.849 28.0394 101.432C26.0257 100.383 24.4137 98.9028 23.2323 96.956C11.3282 77.3411 55.4773 71.0192 49.1312 92C48.2717 94.8415 46.4172 97.4155 45 100C49.231 100.785 52.8322 101.229 57 100C55.7762 93.4082 56.4706 86.6339 57 80C64.1085 81.541 71.2719 78.016 78 75.8356C91.0236 71.6151 104.032 67.3799 117 63C118.05 67.4325 123.21 76.0447 120.013 80.1998C116.76 84.428 105.387 83.551 104.502 89.2245C103.938 92.8431 106.544 97.6324 107.667 101C110.678 110.035 114.051 118.951 117 128C117.683 126.494 117.826 125.685 118 124C120.253 125.363 121.365 125.337 124 125C124 110.948 124.643 96.9889 124.985 83C125.127 77.2087 123.519 69.2983 126.318 64.0154C129.059 58.8409 134.702 57.2263 140 56L138 53L144 53C142.861 51.9845 142.388 51.6913 141 51C148.661 50.4217 153.705 57.6322 158 63C166.741 73.9254 175.637 88.8262 187 97C188.399 90.2206 193.312 79.8631 191.933 73.0394C191.314 69.9785 188.246 67.9525 185.999 66.0841C180.081 61.1628 173.86 55.5019 167 52C171.846 45.6694 177.722 43.7216 185 41.3295C187.422 40.5332 190.388 38.9142 193 39.2122C196.636 39.627 199.714 43.4707 203 45C204.023 31.547 223.47 30.0219 233 25C232.038 37.0867 228.243 49.0965 226 61C236.179 67.366 244.525 79.194 256 83L255 80L270 79L270 0L0 0z"/>
<path style="fill:#ffc4c1; stroke:none;" d="M232 25L233 26L232 25z"/>
<path style="fill:#ff9b93; stroke:none;" d="M230 26L231 27L230 26z"/>
<path style="fill:#e51914; stroke:none;" d="M231 26C230.455 27.6352 230.635 27.4549 229 28C230.506 28.683 231.315 28.8259 233 29C232.309 27.6116 232.015 27.1393 231 26z"/>
<path style="fill:#cb0000; stroke:none;" d="M232.333 26.6667C232.278 26.7222 232.222 27.7778 232.667 27.3333C232.722 27.2777 232.778 26.2223 232.333 26.6667z"/>
<path style="fill:#ff9eab; stroke:none;" d="M227 27L228 28L227 27z"/>
<path style="fill:#d20000; stroke:none;" d="M226 28C227.943 28.6218 228.949 28.4358 231 28C229.057 27.3782 228.051 27.5642 226 28z"/>
<path style="fill:#ff9789; stroke:none;" d="M224 28L225 29L224 28z"/>
<path style="fill:#cf3134; stroke:none;" d="M225 28L226 29L225 28z"/>
<path style="fill:#ef8b7e; stroke:none;" d="M221 29L222 30L221 29z"/>
<path style="fill:#e10000; stroke:none;" d="M216 31C219.669 32.3051 224.051 30.8453 228 31C224.063 28.357 220.324 30.012 216 31z"/>
<path style="fill:#d24829; stroke:none;" d="M226.667 29.3333C226.222 29.7778 227.278 29.7222 227.333 29.6667C227.778 29.2222 226.722 29.2778 226.667 29.3333z"/>
<path style="fill:#e02e2a; stroke:none;" d="M228 29C228.98 30.7833 228.908 30.5943 231 31C229.861 29.9846 229.388 29.6913 228 29z"/>
<path style="fill:#c40000; stroke:none;" d="M229 29C230.057 31.7052 230.041 34.1079 230 37C231.378 34.4118 231.761 31.9199 232 29L229 29z"/>
<path style="fill:#e37379; stroke:none;" d="M232 29L233 30L232 29z"/>
<path style="fill:#db6f7c; stroke:none;" d="M218 30L219 31L218 30z"/>
<path style="fill:#da191a; stroke:none;" d="M212 52C208.332 51.0446 206.741 49.328 205 46C203.805 46.5977 204.023 46.4661 203 48C200.619 43.5467 197.034 41.7953 193 39C188.279 41.8915 181.423 43.9482 176 45C181.131 51.1028 187.923 55.6713 193.759 61.1165C196.085 63.2865 199.866 65.141 200.968 68.3009C201.823 70.7527 200.669 73.5564 200.296 76C198.923 85.0093 192.737 96.0207 195 105C186.29 100.966 180.522 91.3999 175 84C171.887 85.5566 171.549 84.2554 171 87C167.733 84.8684 166.047 84.4195 164 88L168 88C164.968 90.8031 161.736 92.8685 161 97C154.696 99.665 150.021 104.947 144 108C149.072 110.068 152.331 106.715 157.039 105.34C160.917 104.208 165.049 104.87 169 104C170.248 107.298 172.034 110.074 174 113C179.672 111.424 185.421 109.168 191 107.213C193.341 106.393 196.485 105.751 197.973 103.57C200.523 99.8324 199.988 92.3637 200 88L208 88L208 80L204 80L205 70C208.809 71.3604 211.932 71.986 216 72L216 56L226 56C227.8 47.9512 228.356 42.2997 228 34C228.986 35.4785 229 35.2032 229 37C229.951 35.0594 230.439 33.1024 231 31C228.366 30.8942 225.627 30.3907 223 30.6844C211.434 31.9774 212 42.814 212 52z"/>
<path style="fill:#b5a3b5; stroke:none;" d="M215 31L216 32L215 31z"/>
<path style="fill:#e57a68; stroke:none;" d="M213 32L214 33L213 32z"/>
<path style="fill:#f70000; stroke:none;" d="M214.667 32.3333C214.222 32.7778 215.278 32.7222 215.333 32.6667C215.778 32.2222 214.722 32.2778 214.667 32.3333z"/>
<path style="fill:#ffc6c5; stroke:none;" d="M211 33L212 34L211 33z"/>
<path style="fill:#d92f27; stroke:none;" d="M204 42C207.228 39.6608 209.184 38.1447 213 40L215 33C210.107 34.2153 205.515 37.0483 204 42z"/>
<path style="fill:#eb4b48; stroke:none;" d="M231 33L232 34L231 33z"/>
<path style="fill:#e68385; stroke:none;" d="M210 34L211 35L210 34z"/>
<path style="fill:#a70717; stroke:none;" d="M211 34L212 35L211 34z"/>
<path style="fill:#d10912; stroke:none;" d="M228 34C228.058 36.7845 228.352 39.2908 229 42C229.924 40.3518 230.449 38.8251 231 37L228 34z"/>
<path style="fill:#ffa994; stroke:none;" d="M231 34L232 35L231 34z"/>
<path style="fill:#ffcfbe; stroke:none;" d="M208 35L209 36L208 35z"/>
<path style="fill:#f298a2; stroke:none;" d="M207 36L208 37L207 36z"/>
<path style="fill:#e56d70; stroke:none;" d="M206 37L207 38L206 37z"/>
<path style="fill:#feb2a9; stroke:none;" d="M192 38C193.248 38.6848 193.548 38.7488 195 39C193.752 38.3152 193.452 38.2512 192 38z"/>
<path style="fill:#d38b89; stroke:none;" d="M204 38L205 39L204 38z"/>
<path style="fill:#d03d39; stroke:none;" d="M208 38L208 42C207.014 40.5215 207 40.7968 207 39C205.745 40.7505 205.386 41.8574 205 44C208.541 45.8047 210.092 48.1517 211 52C212.769 47.7834 212 42.5412 212 38L208 38z"/>
<path style="fill:#e38888; stroke:none;" d="M230 38L231 39L230 38z"/>
<path style="fill:#d6868d; stroke:none;" d="M190 39L191 40L190 39z"/>
<path style="fill:#aa4550; stroke:none;" d="M191 39L192 40L191 39z"/>
<path style="fill:#c70000; stroke:none;" d="M193 39C194.223 40.1952 194.42 40.3164 196 41C194.777 39.8048 194.58 39.6836 193 39z"/>
<path style="fill:#ff9497; stroke:none;" d="M195 39L196 40L195 39z"/>
<path style="fill:#ffbac3; stroke:none;" d="M203 39L204 40L203 39z"/>
<path style="fill:#b6413e; stroke:none;" d="M207 39L207 42C207.696 40.4463 207.696 40.5537 207 39z"/>
<path style="fill:#efc7bc; stroke:none;" d="M230 39L231 40L230 39z"/>
<path style="fill:#fd8182; stroke:none;" d="M187 40L188 41L187 40z"/>
<path style="fill:#d30000; stroke:none;" d="M186 41C188.164 41.6756 189.732 41.387 192 41C189.761 40.1892 188.353 40.4712 186 41z"/>
<path style="fill:#f18373; stroke:none;" d="M196 40L197 41L196 40z"/>
<path style="fill:#d2958a; stroke:none;" d="M203.333 40.6667C203.278 40.7222 203.222 41.7778 203.667 41.3333C203.722 41.2777 203.778 40.2223 203.333 40.6667z"/>
<path style="fill:#ea2741; stroke:none;" d="M184.667 41.3333C184.222 41.7778 185.278 41.7222 185.333 41.6667C185.778 41.2222 184.722 41.2778 184.667 41.3333z"/>
<path style="fill:#af0000; stroke:none;" d="M196 41L197 42L196 41z"/>
<path style="fill:#ea5f67; stroke:none;" d="M197 41L198 42L197 41z"/>
<path style="fill:#e88070; stroke:none;" d="M181 42L182 43L181 42z"/>
<path style="fill:#ef4c4e; stroke:none;" d="M203.667 42.3333C203.222 42.7778 204.278 42.7222 204.333 42.6667C204.778 42.2222 203.722 42.2777 203.667 42.3333z"/>
<path style="fill:#f25056; stroke:none;" d="M229 42L230 43L229 42z"/>
<path style="fill:#fccfc8; stroke:none;" d="M177 43L178 44L177 43z"/>
<path style="fill:#f85d72; stroke:none;" d="M178 43L179 44L178 43z"/>
<path style="fill:#e40005; stroke:none;" d="M176 44C178.239 44.8108 179.647 44.5288 182 44C179.836 43.3244 178.268 43.613 176 44z"/>
<path style="fill:#c60c27; stroke:none;" d="M203 43L203 45C204.635 44.455 204.455 44.6351 205 43L203 43z"/>
<path style="fill:#faa29d; stroke:none;" d="M229 43L230 44L229 43z"/>
<path style="fill:#ffbbc9; stroke:none;" d="M174 44L175 45L174 44z"/>
<path style="fill:#d2627a; stroke:none;" d="M175 44L176 45L175 44z"/>
<path style="fill:#c03734; stroke:none;" d="M203 48C204.3 47.3501 204 47.8532 204 46C206.019 48.9864 207.468 51.013 211 52C210.41 47.6677 204.542 40.358 203 48z"/>
<path style="fill:#bd7171; stroke:none;" d="M173 45L174 46L173 45z"/>
<path style="fill:#7a0004; stroke:none;" d="M174 45L175 46L174 45z"/>
<path style="fill:#a02c2c; stroke:none;" d="M175 45C172.861 46.4062 169.666 47.9909 169.752 51.0039C169.904 56.3823 181.151 64.452 185 59L182 60L179 55C181.056 54.5125 182.144 54.0481 184 53C181.38 49.9407 178.122 47.5376 175 45z"/>
<path style="fill:#f6a99d; stroke:none;" d="M202 45L203 46L202 45z"/>
<path style="fill:#d3d6d0; stroke:none;" d="M169 46L170 47L169 46z"/>
<path style="fill:#a65d5a; stroke:none;" d="M172 46L173 47L172 46z"/>
<path style="fill:#d4281e; stroke:none;" d="M176 46C177.223 47.1952 177.42 47.3164 179 48C177.777 46.8048 177.58 46.6836 176 46z"/>
<path style="fill:#f9496e; stroke:none;" d="M228 47L229 48L228 47z"/>
<path style="fill:#f2cbc3; stroke:none;" d="M169 48L170 49L169 48z"/>
<path style="fill:#f1e9d5; stroke:none;" d="M228.333 48.6667C228.278 48.7222 228.222 49.7778 228.667 49.3333C228.722 49.2778 228.778 48.2222 228.333 48.6667z"/>
<path style="fill:#e1b0a9; stroke:none;" d="M168 49L169 50L168 49z"/>
<path style="fill:#edfffa; stroke:none;" d="M141 50C142.223 51.1952 142.42 51.3164 144 52C141.894 52.6438 140.205 52.9059 138 53L138 55C141.078 54.9364 143.975 54.5621 147 54C145.528 51.1855 144.122 50.4559 141 50z"/>
<path style="fill:#a39a9f; stroke:none;" d="M167.333 50.6667C167.278 50.7222 167.222 51.7778 167.667 51.3333C167.722 51.2778 167.778 50.2223 167.333 50.6667z"/>
<path style="fill:#a30012; stroke:none;" d="M168.333 50.6667C168.278 50.7222 168.222 51.7778 168.667 51.3333C168.722 51.2778 168.778 50.2222 168.333 50.6667z"/>
<path style="fill:#e6c9b8; stroke:none;" d="M168 52L169 53L168 52z"/>
<path style="fill:#680a0c; stroke:none;" d="M169 52L170 53L169 52z"/>
<path style="fill:#c60000; stroke:none;" d="M226 52L226 56C226.71 54.2405 226.71 53.7595 226 52z"/>
<path style="fill:#e9928a; stroke:none;" d="M227 52L228 53L227 52z"/>
<path style="fill:#fb8585; stroke:none;" d="M147 53L148 54L147 53z"/>
<path style="fill:#ff051c; stroke:none;" d="M147 55L150 55L149 53C147.365 53.5451 147.545 53.3648 147 55z"/>
<path style="fill:#ae0000; stroke:none;" d="M149 53L150 54L149 53z"/>
<path style="fill:#ff9aa3; stroke:none;" d="M150 53L151 54L150 53z"/>
<path style="fill:#952d2e; stroke:none;" d="M179 55L182 60C183.853 60 183.35 60.2997 184 59C183.169 66.0625 189.248 68.7179 193 74C195.139 72.3934 199.365 69.9871 199.364 66.9306C199.364 64.383 196.199 62.5297 194.421 61.2052C189.268 57.3688 185.6 53.2831 179 55z"/>
<path style="fill:#c52620; stroke:none;" d="M184 53C185.312 54.4591 186.231 55.1572 188 56C186.774 53.9653 186.297 53.6736 184 53z"/>
<path style="fill:#ff6e85; stroke:none;" d="M144 54L145 55L144 54z"/>
<path style="fill:#a20000; stroke:none;" d="M145 54L146 55L145 54z"/>
<path style="fill:#ea3031; stroke:none;" d="M144 57C138.518 56.5601 133.102 58.0043 128 60C129.207 66.4997 129.945 73.3885 130 80L133 80L133 76L135 76L135 80C141.792 79.9948 145.33 79.6214 144 72C145.64 73.5722 146.751 75.0833 148 77L150 77C151.714 73.3007 153.189 71.5437 157 70C157 68.2032 156.986 68.4785 156 67C159.082 64.2693 153.565 55.7834 149.981 54.7731C147.344 54.0296 144.399 54.3781 144 57z"/>
<path style="fill:#ffbaa7; stroke:none;" d="M151 54L152 55L151 54z"/>
<path style="fill:#ffc4cd; stroke:none;" d="M140 55L141 56L140 55z"/>
<path style="fill:#fc7187; stroke:none;" d="M141 55L142 56L141 55z"/>
<path style="fill:#fb0e1b; stroke:none;" d="M140 56C141.506 56.683 142.315 56.8259 144 57C142.276 55.9445 142.079 55.9642 140 56z"/>
<path style="fill:#d88a86; stroke:none;" d="M172 55L173 56L172 55z"/>
<path style="fill:#fbbea7; stroke:none;" d="M137 56L138 57L137 56z"/>
<path style="fill:#da5d59; stroke:none;" d="M138 56L139 57L138 56z"/>
<path style="fill:#d29ea1; stroke:none;" d="M173 56L174 57L173 56z"/>
<path style="fill:#be2523; stroke:none;" d="M188 56C189.226 58.0347 189.703 58.3265 192 59C190.688 57.5409 189.769 56.8429 188 56z"/>
<path style="fill:#d71919; stroke:none;" d="M216 56L216 72C212.014 71.9559 208.809 70.8951 205 70L204 80L208 80L208 88L200 88L199 104L203 103C203 101.147 203.3 101.65 202 101C204.796 101.038 208.501 102.276 209 99L214 99L213 92L215 93C215.457 87.2633 216.952 81.7907 217 76C221.873 78.4903 232.533 85.6643 234 91L238 91C237.232 89.6859 237.314 89.7679 236 89C238.2 88.7499 240.553 88.9828 242.716 88.4838C244.198 88.142 245.616 87.4493 247.07 86.9992C252.855 85.2084 252.077 81.8391 247.941 78.081C242.923 73.521 232.892 70.9679 231 64C228.498 63.5975 226.511 63.6415 224 64C224.698 61.3219 224.815 58.7659 225 56L216 56z"/>
<path style="fill:#bf0002; stroke:none;" d="M225 56L225 61C225.83 58.9695 225.83 58.0305 225 56z"/>
<path style="fill:#b48069; stroke:none;" d="M226 56L227 57L226 56z"/>
<path style="fill:#ffb3ba; stroke:none;" d="M134 57L135 58L134 57z"/>
<path style="fill:#ff4b74; stroke:none;" d="M135 57L136 58L135 57z"/>
<path style="fill:#ffddd1; stroke:none;" d="M226.333 57.6667C226.278 57.7222 226.222 58.7778 226.667 58.3333C226.722 58.2777 226.778 57.2222 226.333 57.6667z"/>
<path style="fill:#ffc6c0; stroke:none;" d="M131 58L132 59L131 58z"/>
<path style="fill:#df0b11; stroke:none;" d="M133 58C134.248 58.6848 134.548 58.7488 136 59C134.752 58.3152 134.452 58.2512 133 58z"/>
<path style="fill:#f39f8d; stroke:none;" d="M154 58L155 59L154 58z"/>
<path style="fill:#fa090c; stroke:none;" d="M224.333 58.6667C224.278 58.7222 224.222 59.7778 224.667 59.3333C224.722 59.2777 224.778 58.2223 224.333 58.6667z"/>
<path style="fill:#f1483e; stroke:none;" d="M136 59C137.506 59.683 138.315 59.8259 140 60C138.494 59.317 137.685 59.1741 136 59z"/>
<path style="fill:#ffd6bb; stroke:none;" d="M155 59L156 60L155 59z"/>
<path style="fill:#cf7781; stroke:none;" d="M177 59L178 60L177 59z"/>
<path style="fill:#d41713; stroke:none;" d="M155 60C156.188 63.6897 157.677 65.9716 161 68C159.536 64.719 157.702 62.3686 155 60z"/>
<path style="fill:#cda79b; stroke:none;" d="M178 60L179 61L178 60z"/>
<path style="fill:#6e0000; stroke:none;" d="M179 60L180 61L179 60z"/>
<path style="fill:#cd959d; stroke:none;" d="M127 61L128 62L127 61z"/>
<path style="fill:#f00914; stroke:none;" d="M225 61L224 64C225.766 63.0214 225.955 62.7782 225 61z"/>
<path style="fill:#c21b17; stroke:none;" d="M226 61L226 64L228 63C227.455 61.3648 227.635 61.5451 226 61z"/>
<path style="fill:#ff929c; stroke:none;" d="M227 61L228 62L227 61z"/>
<path style="fill:#d23233; stroke:none;" d="M126 63C128.873 68.1669 128 74.2521 128 80C130.191 74.7776 129 67.6322 129 62C127.203 62 127.479 62.0143 126 63z"/>
<path style="fill:#ff5157; stroke:none;" d="M157 62L158 63L157 62z"/>
<path style="fill:#b84d5f; stroke:none;" d="M181 62L182 63L181 62z"/>
<path style="fill:#730000; stroke:none;" d="M182 62L183 63L182 62z"/>
<path style="fill:#ff7379; stroke:none;" d="M228 62L229 63L228 62z"/>
<path style="fill:#dacfda; stroke:none;" d="M115.667 63.3333C115.222 63.7778 116.278 63.7222 116.333 63.6667C116.778 63.2222 115.722 63.2778 115.667 63.3333z"/>
<path style="fill:#ff8b9a; stroke:none;" d="M158 63L159 64L158 63z"/>
<path style="fill:#d09482; stroke:none;" d="M182 63L183 64L182 63z"/>
<path style="fill:#ae5a59; stroke:none;" d="M229 63L230 64L229 63z"/>
<path style="fill:#ffceb2; stroke:none;" d="M112 64L113 65L112 64z"/>
<path style="fill:#ff6e7b; stroke:none;" d="M113 64L114 65L113 64z"/>
<path style="fill:#ed2f2f; stroke:none;" d="M114 64C112.647 64.8589 112.645 64.8227 111 65C107.369 67.3083 102.32 69.1403 98 69C95.9082 70.7131 94.7202 70.9656 92 71L88 76L92 75C91.0143 76.4785 91 76.2032 91 78L95 76L97 82L101 80L102 85C108.437 84.0359 114.953 81.3901 121 79C119.885 73.2551 119.369 67.2124 114 64z"/>
<path style="fill:#e80000; stroke:none;" d="M115.667 64.3333C115.222 64.7778 116.278 64.7222 116.333 64.6667C116.778 64.2222 115.722 64.2778 115.667 64.3333z"/>
<path style="fill:#df8e94; stroke:none;" d="M125 64L125 67C125.696 65.4463 125.696 65.5537 125 64z"/>
<path style="fill:#b12230; stroke:none;" d="M126 64L126 72C127.161 69.2301 127.161 66.7699 126 64z"/>
<path style="fill:#9c3b37; stroke:none;" d="M127 64C126.965 68.1478 125.766 71.9305 125.495 76C124.714 87.7236 126 100.18 126 112C130.142 102.22 128 88.448 128 78C128 73.4645 128.769 68.2151 127 64z"/>
<path style="fill:#ff8074; stroke:none;" d="M159 64L160 65L159 64z"/>
<path style="fill:#ffb4a1; stroke:none;" d="M231 64L232 65L231 64z"/>
<path style="fill:#ff7380; stroke:none;" d="M110 65L111 66L110 65z"/>
<path style="fill:#c6242a; stroke:none;" d="M112.667 65.3333C112.222 65.7778 113.278 65.7222 113.333 65.6667C113.778 65.2222 112.722 65.2778 112.667 65.3333z"/>
<path style="fill:#f5b69b; stroke:none;" d="M117 65L118 66L117 65z"/>
<path style="fill:#be000d; stroke:none;" d="M230 65C231.223 66.1952 231.42 66.3164 233 67C231.777 65.8048 231.58 65.6836 230 65z"/>
<path style="fill:#d7bcb4; stroke:none;" d="M232 65L233 66L232 65z"/>
<path style="fill:#ffbfc3; stroke:none;" d="M106 66L107 67L106 66z"/>
<path style="fill:#fe6b75; stroke:none;" d="M107 66L108 67L107 66z"/>
<path style="fill:#e51b12; stroke:none;" d="M109.667 66.3333C109.222 66.7778 110.278 66.7222 110.333 66.6667C110.778 66.2222 109.722 66.2778 109.667 66.3333z"/>
<path style="fill:#b3a989; stroke:none;" d="M233 66L234 67L233 66z"/>
<path style="fill:#c3373c; stroke:none;" d="M104.667 67.3333C104.222 67.7778 105.278 67.7222 105.333 67.6667C105.778 67.2222 104.722 67.2778 104.667 67.3333z"/>
<path style="fill:#aa676a; stroke:none;" d="M125 67L125 75C126.161 72.2301 126.161 69.7698 125 67z"/>
<path style="fill:#e51e21; stroke:none;" d="M156 67L157 70C154.854 70.5036 153.021 71.1194 151 72L152 78C150.183 76.8431 150.165 76.8547 148 77C152.161 82.1057 155.438 87.4727 159 93C154.107 93.4903 149.652 95.4838 145 97C143.524 90.7994 144.732 85.2314 145 79C141.632 79.802 138.455 79.9905 135 80L135 76L133 76L133 80L130 80L130 72C127.475 77.9611 128 85.6049 128 92C128 104.294 128.877 116.951 126 129L127 130C131.518 127.586 139.849 124.845 143.258 121.273C146.756 117.607 143.881 112.823 149 110C147.231 109.221 145.964 109.088 144 109L161 97C162.08 93.2415 165.642 91.0801 168 88L164 88C166.512 85.4768 167.728 85.675 171 87L175 84C172.281 80.2225 169.356 77.6878 165 76C165.494 70.1161 161.445 67.6064 156 67z"/>
<path style="fill:#ff3d4f; stroke:none;" d="M161 67L162 68L161 67z"/>
<path style="fill:#b86c74; stroke:none;" d="M187 67L188 68L187 67z"/>
<path style="fill:#b51a28; stroke:none;" d="M200 67L197 70C198.769 70.779 200.036 70.9124 202 71L202 67L200 67z"/>
<path style="fill:#e5050f; stroke:none;" d="M233 67C234.517 69.9178 235.893 70.9223 239 72C237.17 69.6523 235.637 68.3829 233 67z"/>
<path style="fill:#c75a57; stroke:none;" d="M234 67L235 68L234 67z"/>
<path style="fill:#e4c5a8; stroke:none;" d="M100 68L101 69L100 68z"/>
<path style="fill:#e46d61; stroke:none;" d="M101 68L102 69L101 68z"/>
<path style="fill:#de9f9b; stroke:none;" d="M118 68L119 69L118 68z"/>
<path style="fill:#fc8788; stroke:none;" d="M162 68L163 69L162 68z"/>
<path style="fill:#d4b2ab; stroke:none;" d="M188 68L189 69L188 68z"/>
<path style="fill:#f1afad; stroke:none;" d="M97 69L98 70L97 69z"/>
<path style="fill:#ff0012; stroke:none;" d="M99 69C100.248 69.6848 100.548 69.7488 102 70C100.752 69.3152 100.452 69.2512 99 69z"/>
<path style="fill:#cb4652; stroke:none;" d="M110.667 69.3333C110.222 69.7778 111.278 69.7222 111.333 69.6667C111.778 69.2222 110.722 69.2778 110.667 69.3333z"/>
<path style="fill:#e5ad9e; stroke:none;" d="M163 69L164 70L163 69z"/>
<path style="fill:#f1c8b9; stroke:none;" d="M237 69L238 70L237 69z"/>
<path style="fill:#ff9397; stroke:none;" d="M94 70L95 71L94 70z"/>
<path style="fill:#eb5665; stroke:none;" d="M95 70L96 71L95 70z"/>
<path style="fill:#f10b1e; stroke:none;" d="M96.6667 70.3333C96.2222 70.7778 97.2778 70.7222 97.3333 70.6667C97.7778 70.2222 96.7222 70.2778 96.6667 70.3333z"/>
<path style="fill:#fba89c; stroke:none;" d="M119.333 70.6667C119.278 70.7222 119.222 71.7778 119.667 71.3333C119.722 71.2778 119.778 70.2222 119.333 70.6667z"/>
<path style="fill:#ff868f; stroke:none;" d="M238 70L239 71L238 70z"/>
<path style="fill:#f5a4a5; stroke:none;" d="M91 71L92 72L91 71z"/>
<path style="fill:#da0512; stroke:none;" d="M93.6667 71.3333C93.2222 71.7778 94.2778 71.7222 94.3333 71.6667C94.7778 71.2222 93.7222 71.2778 93.6667 71.3333z"/>
<path style="fill:#c73538; stroke:none;" d="M190 92L195 88C194.251 92.036 194.003 95.8993 194 100C198.501 91.5482 200.251 80.4881 201 71C190.741 71.5664 191.094 83.7329 190 92z"/>
<path style="fill:#cd404a; stroke:none;" d="M239 71L240 72L239 71z"/>
<path style="fill:#ff6a5e; stroke:none;" d="M88 72L89 73L88 72z"/>
<path style="fill:#db2824; stroke:none;" d="M86 76L92 73C88.9524 71.8433 86.905 72.9063 86 76z"/>
<path style="fill:#cc211e; stroke:none;" d="M144 72L144 75C145.015 73.8606 145.309 73.3885 146 72L144 72z"/>
<path style="fill:#fa9088; stroke:none;" d="M85 73L86 74L85 73z"/>
<path style="fill:#591507; stroke:none;" d="M145 73C145.176 74.8781 145.438 76.1995 146 78C146.791 75.6927 146.475 74.9352 145 73z"/>
<path style="fill:#c86768; stroke:none;" d="M166 73L167 74L166 73z"/>
<path style="fill:#ffb5a7; stroke:none;" d="M192 73L193 74L192 73z"/>
<path style="fill:#ddc8b7; stroke:none;" d="M242 73L243 74L242 73z"/>
<path style="fill:#fb7780; stroke:none;" d="M82 74L83 75L82 74z"/>
<path style="fill:#ec0002; stroke:none;" d="M80 75C82.2393 75.8108 83.647 75.5288 86 75C83.8365 74.3244 82.2684 74.613 80 75z"/>
<path style="fill:#e49591; stroke:none;" d="M120 74L121 75L120 74z"/>
<path style="fill:#ca2f2c; stroke:none;" d="M151 74L151 78C151.71 76.2405 151.71 75.7595 151 74z"/>
<path style="fill:#ff2e37; stroke:none;" d="M165.333 74.6667C165.278 74.7223 165.222 75.7778 165.667 75.3333C165.722 75.2778 165.778 74.2222 165.333 74.6667z"/>
<path style="fill:#cd0702; stroke:none;" d="M166 74C166.936 75.9486 167.392 76.5502 169 78C168.064 76.0514 167.608 75.4498 166 74z"/>
<path style="fill:#ff878d; stroke:none;" d="M167 74L168 75L167 74z"/>
<path style="fill:#d96d67; stroke:none;" d="M192 74L193 75L192 74z"/>
<path style="fill:#d39486; stroke:none;" d="M243 74L244 75L243 74z"/>
<path style="fill:#ffbfb9; stroke:none;" d="M78 75L79 76L78 75z"/>
<path style="fill:#ff7e8e; stroke:none;" d="M79 75L80 76L79 75z"/>
<path style="fill:#ed2525; stroke:none;" d="M71 78C68.6322 80.0015 67.0881 80.2611 64 80C63.7817 81.6865 63.7761 82.3161 64 84C61.6403 83.52 60.3374 83.4808 58 84C59.1842 88.8045 60.2143 93.363 62 98C69.0036 96.8134 76.3549 94.5077 83 92L84 98L86 97C86.9234 98.8468 86.3829 100.085 87 97C87.5618 98.8006 87.8241 100.122 88 102C94.3153 102 102.131 103.597 107 99C103.454 92.7949 102.245 86.9049 101 80C99.0182 80.4646 98.5944 80.7035 97 82L95 76L91 78L92 75C85.4573 75.9518 77.4384 78.425 71 78z"/>
<path style="fill:#fd0012; stroke:none;" d="M120.333 75.6667C120.278 75.7222 120.222 76.7778 120.667 76.3333C120.722 76.2778 120.778 75.2222 120.333 75.6667z"/>
<path style="fill:#ffb6ca; stroke:none;" d="M168 75L169 76L168 75z"/>
<path style="fill:#de6d64; stroke:none;" d="M244 75L245 76L244 75z"/>
<path style="fill:#eb6c69; stroke:none;" d="M76 76L77 77L76 76z"/>
<path style="fill:#d60006; stroke:none;" d="M77 76C78.2484 76.6848 78.5484 76.7488 80 77C78.7516 76.3152 78.4516 76.2512 77 76z"/>
<path style="fill:#7d2313; stroke:none;" d="M147 76C145.888 77.5368 145.304 78.0211 145 80L149 80C148.436 78.248 148.081 77.458 147 76z"/>
<path style="fill:#b20208; stroke:none;" d="M192.333 76.6667C192.278 76.7223 192.222 77.7777 192.667 77.3333C192.722 77.2778 192.778 76.2222 192.333 76.6667z"/>
<path style="fill:#b8211e; stroke:none;" d="M217 76L217 80L220 77C218.752 76.3152 218.452 76.2512 217 76z"/>
<path style="fill:#fccda8; stroke:none;" d="M72 77L73 78L72 77z"/>
<path style="fill:#eb6e65; stroke:none;" d="M73 77L74 78L73 77z"/>
<path style="fill:#ff0015; stroke:none;" d="M72 78C73.9433 78.6218 74.949 78.4358 77 78C75.0567 77.3782 74.051 77.5642 72 78z"/>
<path style="fill:#a1554f; stroke:none;" d="M121.333 77.6667C121.278 77.7222 121.222 78.7778 121.667 78.3333C121.722 78.2778 121.778 77.2222 121.333 77.6667z"/>
<path style="fill:#d84249; stroke:none;" d="M169 77L170 78L169 77z"/>
<path style="fill:#e8b7b6; stroke:none;" d="M191 77L192 78L191 77z"/>
<path style="fill:#78221b; stroke:none;" d="M218 77L216 84L220 85C220.053 82.2481 220.401 79.7118 220 77L218 77z"/>
<path style="fill:#efefef; stroke:none;" d="M22 88C28.1117 84.3417 34.8681 80.0163 42 79C35.0361 76.1597 23.8768 80.5436 22 88z"/>
<path style="fill:#ffc6b9; stroke:none;" d="M69 78L70 79L69 78z"/>
<path style="fill:#f7575f; stroke:none;" d="M70 78L71 79L70 78z"/>
<path style="fill:#940f26; stroke:none;" d="M125 78L125 84C125.951 81.7147 125.951 80.2853 125 78z"/>
<path style="fill:#9b1e0d; stroke:none;" d="M149.333 78.6667C149.278 78.7223 149.222 79.7777 149.667 79.3333C149.722 79.2778 149.778 78.2222 149.333 78.6667z"/>
<path style="fill:#e16e6d; stroke:none;" d="M170 78L171 79L170 78z"/>
<path style="fill:#a6474d; stroke:none;" d="M191.333 78.6667C191.278 78.7223 191.222 79.7778 191.667 79.3333C191.722 79.2778 191.778 78.2222 191.333 78.6667z"/>
<path style="fill:#dfdfdf; stroke:none;" d="M21 94C21.6848 92.7516 21.7488 92.4516 22 91C26.8284 90.7753 37.0311 86.8023 40 83C42.8245 83.6147 45.1266 83.3437 48 83C41.1297 73.2002 21.9956 84.3763 21 94z"/>
<path style="fill:#ffabb6; stroke:none;" d="M66 79L67 80L66 79z"/>
<path style="fill:#fc3858; stroke:none;" d="M67 79L68 80L67 79z"/>
<path style="fill:#e20000; stroke:none;" d="M68 79C69.2484 79.6848 69.5484 79.7488 71 80C69.7516 79.3152 69.4516 79.2512 68 79z"/>
<path style="fill:#800b00; stroke:none;" d="M120 79L121 80L120 79z"/>
<path style="fill:#eab4a9; stroke:none;" d="M121 79L122 80L121 79z"/>
<path style="fill:#892c2f; stroke:none;" d="M146 79C146.01 81.3927 145.86 83.8191 147.111 85.9722C148.85 88.9654 151.255 89.4576 152 86C150.7 86.6498 151 86.1468 151 88C149.597 85.1945 149.68 84.4201 152 85C150.966 81.3031 149.697 80.0336 146 79z"/>
<path style="fill:#ff8ba4; stroke:none;" d="M171 79L172 80L171 79z"/>
<path style="fill:#8c2722; stroke:none;" d="M221 79C219.582 82.0262 219.214 84.6825 219 88C220.65 86.7624 220.333 85.3335 221 88L223 85C225.811 87.5938 228.199 88.6079 232 89L228 90C230.283 91.2215 232.428 91.6521 235 92L235 89C230.475 85.5694 225.981 81.7094 221 79z"/>
<path style="fill:#e58a8a; stroke:none;" d="M249 79L250 80L249 79z"/>
<path style="fill:#eaeaea; stroke:none;" d="M255 80L256 85C253.994 86.1266 253.994 86.8734 256 88C256 84.6306 259.346 86.4082 262 86C266.152 85.3612 269.886 83.2195 270 79L255 80z"/>
<path style="fill:#effff0; stroke:none;" d="M57 80L56 84L60 81C58.5215 80.0143 58.7968 80 57 80z"/>
<path style="fill:#cad2ad; stroke:none;" d="M63 80L64 81L63 80z"/>
<path style="fill:#c60000; stroke:none;" d="M65 80C66.2483 80.6848 66.5484 80.7488 68 81C66.7516 80.3152 66.4516 80.2512 65 80z"/>
<path style="fill:#9b393d; stroke:none;" d="M116.667 80.3333C116.222 80.7778 117.278 80.7222 117.333 80.6667C117.778 80.2222 116.722 80.2778 116.667 80.3333z"/>
<path style="fill:#611b1d; stroke:none;" d="M117 82C118.58 81.3164 118.777 81.1952 120 80C118.42 80.6836 118.223 80.8048 117 82z"/>
<path style="fill:#84483f; stroke:none;" d="M145 80L145 84C145.71 82.2405 145.71 81.7595 145 80z"/>
<path style="fill:#c7302e; stroke:none;" d="M151 80C151.406 82.0924 151.217 82.0198 153 83C152.309 81.6116 152.015 81.1394 151 80z"/>
<path style="fill:#f9bea1; stroke:none;" d="M172 80L173 81L172 80z"/>
<path style="fill:#cd3a26; stroke:none;" d="M191 80C190.707 82.7329 190.77 85.2624 191 88C192.161 85.2302 192.161 82.7699 191 80z"/>
<path style="fill:#da546a; stroke:none;" d="M250 80L251 81L250 80z"/>
<path style="fill:#ffa6a7; stroke:none;" d="M60 81L61 82L60 81z"/>
<path style="fill:#f45069; stroke:none;" d="M61 81L62 82L61 81z"/>
<path style="fill:#e40509; stroke:none;" d="M57 83C59.2665 83.6865 61.6228 83.7258 64 84L64 81C61.5636 81.5072 59.3258 82.1196 57 83z"/>
<path style="fill:#712a33; stroke:none;" d="M105 84C109.008 85.6342 112.942 83.9277 117 83C113.058 80.7645 109.111 82.9014 105 84z"/>
<path style="fill:#6e4735; stroke:none;" d="M115.667 81.3333C115.222 81.7778 116.278 81.7222 116.333 81.6667C116.778 81.2222 115.722 81.2778 115.667 81.3333z"/>
<path style="fill:#d87a88; stroke:none;" d="M119 81L120 82L119 81z"/>
<path style="fill:#ff6e84; stroke:none;" d="M57 82L58 83L57 82z"/>
<path style="fill:#b58388; stroke:none;" d="M117 82L118 83L117 82z"/>
<path style="fill:#ce8b83; stroke:none;" d="M190 82L191 83L190 82z"/>
<path style="fill:#cd0000; stroke:none;" d="M252 82C252.482 84.364 252.636 84.5176 255 85C253.897 83.5434 253.457 83.1034 252 82z"/>
<path style="fill:#e1a2a2; stroke:none;" d="M253 82L254 83L253 82z"/>
<path style="fill:#cacaca; stroke:none;" d="M40 83C38.8549 84.9085 36.341 85.6995 34 87C32.9811 87.566 31.0189 86.434 30 87L29 89C25.6833 89.9476 23.4337 91.3584 22 91C24.6048 93.8188 27.8559 91.4662 31 90.2531C36.3413 88.1921 43.2522 85.6878 49 86C46.8227 82.6771 43.6881 83.4253 40 83z"/>
<path style="fill:#7f756c; stroke:none;" d="M114 83L115 84L114 83z"/>
<path style="fill:#943534; stroke:none;" d="M152 83C151.274 85.1792 151.561 84.7803 150 84L150 88C151.3 87.3501 151 87.8532 151 86C151.238 88.0948 151.184 89.8893 151 92C153.085 92 152.724 91.8619 153 94C156.282 90.1939 155.58 87.4358 154 83L152 83z"/>
<path style="fill:#f8636b; stroke:none;" d="M254 83L255 84L254 83z"/>
<path style="fill:#f7f7f7; stroke:none;" d="M256 88L252 86C250.659 91.3149 242.003 92.4881 237 93C237.598 94.1954 237.466 93.9774 239 95C233.588 96.0531 221.966 97.4095 220 103L216 103L216 107C205.901 108.314 194.163 111.055 185.285 116.035C180.991 118.444 172.708 124.038 168 122C164.641 123.318 160.268 125.21 158 128C150.821 126.459 142.518 131.189 136 134C134.774 131.965 134.297 131.674 132 131C132.661 132.396 132.964 132.814 134 134C128.009 135.26 123.194 138.713 117 139L117 142C104.49 142 95.0029 148.814 83 150.333C76.5208 151.154 67.7433 150.488 64 157C60.2558 155.991 58.5208 157.319 54.9105 158.07C50.3002 159.03 45.5504 158.802 41 160.221C36.1378 161.736 32.1565 164.472 27 165C28.2228 163.805 28.42 163.684 30 163C22.1064 157.839 8.87712 167.902 0 168L0 180L16 180L16 177C27.43 176.968 36.805 169.124 48 169C45.3873 167.902 42.8355 168.007 40 168C46.8211 165.983 61.1811 169.106 64 161C69.509 160.984 72.8973 159.341 78 157.698C80.4375 156.914 83.16 157.274 85.4861 156.147C87.5152 155.163 88.9175 153.33 91.0934 152.562C94.2777 151.439 97.744 151.154 101 150.031C105.767 148.386 110.384 149.719 112 144C118.813 143.999 126.259 142.773 132.675 140.488C135.087 139.628 136.661 137.421 139.093 136.562C145.951 134.143 154.337 134.554 160.91 131.586C167.265 128.716 173.022 126.583 179.7 124.53C184.279 123.123 186.942 121.056 192 121L192 118C195.741 117.705 200.102 117.594 203.7 116.527C208.283 115.167 210.941 113.056 216 113L213 111C219.011 110.016 222.574 105.931 228.039 103.877C235.108 101.221 242.909 99.5462 250.166 97.4653C255.655 95.8912 262.265 94.1608 264 88L270 88L270 83C266.895 83.6419 256.403 85.5818 256 88z"/>
<path style="fill:#ef3e55; stroke:none;" d="M57 84L58 85L57 84z"/>
<path style="fill:#a67879; stroke:none;" d="M111 84L112 85L111 84z"/>
<path style="fill:#810013; stroke:none;" d="M125 84L125 88C125.71 86.2405 125.71 85.7595 125 84z"/>
<path style="fill:#bf0002; stroke:none;" d="M144 84L144 90C144.951 87.7148 144.951 86.2853 144 84z"/>
<path style="fill:#fce3e0; stroke:none;" d="M145 84L145 88C146.073 86.1175 146.084 85.8625 145 84z"/>
<path style="fill:#da826b; stroke:none;" d="M175 84L176 85L175 84z"/>
<path style="fill:#b40f20; stroke:none;" d="M190 84L190 88C190.71 86.2405 190.71 85.7595 190 84z"/>
<path style="fill:#a53432; stroke:none;" d="M216 84C217.103 85.4566 217.543 85.8966 219 87C218.101 84.8764 218.124 84.8993 216 84z"/>
<path style="fill:#b7bd9c; stroke:none;" d="M255 84L256 85L255 84z"/>
<path style="fill:#bcbcbc; stroke:none;" d="M22 93L22 97C22.6848 95.7516 22.7488 95.4516 23 94C32.2148 93.8098 39.8934 88.7941 49 88C49 86.2032 48.9857 86.4785 48 85C39.3013 87.3225 30.7162 91.1326 22 93z"/>
<path style="fill:#ffb9d1; stroke:none;" d="M57 85L58 86L57 85z"/>
<path style="fill:#d20008; stroke:none;" d="M58.3333 85.6667C58.2778 85.7222 58.2222 86.7778 58.6667 86.3333C58.7222 86.2778 58.7778 85.2222 58.3333 85.6667z"/>
<path style="fill:#ea3e35; stroke:none;" d="M62.6667 85.3333C62.2222 85.7778 63.2778 85.7222 63.3333 85.6667C63.7778 85.2222 62.7222 85.2778 62.6667 85.3333z"/>
<path style="fill:#a71119; stroke:none;" d="M102.333 85.6667C102.278 85.7222 102.222 86.7778 102.667 86.3333C102.722 86.2778 102.778 85.2222 102.333 85.6667z"/>
<path style="fill:#723d29; stroke:none;" d="M103 85L103 87L105 87L105 85L103 85z"/>
<path style="fill:#560003; stroke:none;" d="M105 85C106.248 85.6848 106.548 85.7488 108 86C106.752 85.3152 106.452 85.2512 105 85z"/>
<path style="fill:#a17979; stroke:none;" d="M108 85L109 86L108 85z"/>
<path style="fill:#cf9893; stroke:none;" d="M176 85L177 86L176 85z"/>
<path style="fill:#fabec6; stroke:none;" d="M189 85L190 86L189 85z"/>
<path style="fill:#73433c; stroke:none;" d="M216.333 85.6667C216.278 85.7223 216.222 86.7777 216.667 86.3333C216.722 86.2778 216.778 85.2222 216.333 85.6667z"/>
<path style="fill:#6f2b21; stroke:none;" d="M222 88L221 86C220.317 87.5061 220.174 88.3148 220 90L225 88C224.309 86.6116 224.015 86.1393 223 85C222.315 86.2484 222.251 86.5484 222 88z"/>
<path style="fill:#9d322f; stroke:none;" d="M252 85L253 86L252 85z"/>
<path style="fill:#a2b29a; stroke:none;" d="M253 85L254 86L253 85z"/>
<path style="fill:#d6d6d6; stroke:none;" d="M49.3333 86.6667C49.2778 86.7222 49.2222 87.7778 49.6667 87.3333C49.7223 87.2777 49.7777 86.2222 49.3333 86.6667z"/>
<path style="fill:#bf7e8d; stroke:none;" d="M105 86L106 87L105 86z"/>
<path style="fill:#fffcff; stroke:none;" d="M146 86L146 96L152 95C150.781 91.1838 149.084 88.5564 146 86z"/>
<path style="fill:#a3675f; stroke:none;" d="M147 86L148 87L147 86z"/>
<path style="fill:#a6050f; stroke:none;" d="M176 86L177 87L176 86z"/>
<path style="fill:#ffc0be; stroke:none;" d="M177 86L178 87L177 86z"/>
<path style="fill:#d15271; stroke:none;" d="M189.333 86.6667C189.278 86.7222 189.222 87.7778 189.667 87.3333C189.722 87.2778 189.778 86.2222 189.333 86.6667z"/>
<path style="fill:#7e040f; stroke:none;" d="M217 86C217.899 88.1236 217.876 88.1007 220 89C218.897 87.5434 218.457 87.1034 217 86z"/>
<path style="fill:#ac0000; stroke:none;" d="M244 87C245.809 87.5743 246.069 87.4653 248 87C246.341 86.5935 245.758 86.6914 244 87z"/>
<path style="fill:#93a884; stroke:none;" d="M250 86L251 87L250 86z"/>
<path style="fill:#e5e5e5; stroke:none;" d="M238 92C242.688 92.9092 252.094 91.7884 252 86C247.236 87.7762 241.997 88.7749 238 92z"/>
<path style="fill:#ecedee; stroke:none;" d="M57 87C56.0143 88.4785 56 88.2032 56 90C57.7663 89.0214 57.9554 88.7782 57 87z"/>
<path style="fill:#ff3844; stroke:none;" d="M58 87L59 88L58 87z"/>
<path style="fill:#ca2a1c; stroke:none;" d="M101 87L102 91C102.751 88.9536 102.656 88.4043 101 87z"/>
<path style="fill:#ffb19d; stroke:none;" d="M103.333 87.6667C103.278 87.7222 103.222 88.7778 103.667 88.3333C103.722 88.2778 103.778 87.2222 103.333 87.6667z"/>
<path style="fill:#960000; stroke:none;" d="M177 87L178 88L177 87z"/>
<path style="fill:#fff3ff; stroke:none;" d="M216 87C215.375 90.3632 215.028 93.5782 215 97L220 92C218.521 91.0143 218.797 91 217 91C218.534 89.9774 218.402 90.1954 219 89C217.814 87.8137 217.416 87.4721 216 87z"/>
<path style="fill:#7c1c1a; stroke:none;" d="M221 89C222.03 90.4251 222.601 91.3197 223 93L228 93L228 90L232 90C228.202 87.8848 225.122 87.7088 221 89z"/>
<path style="fill:#d75c45; stroke:none;" d="M247 87L248 88L247 87z"/>
<path style="fill:#99e1cf; stroke:none;" d="M248 87L249 88L248 87z"/>
<path style="fill:#aeaeae; stroke:none;" d="M23 94L23 98L32 97C36.5652 92.0699 41.6636 90.6771 48 89C40.5946 86.373 30.8536 93.6619 23 94z"/>
<path style="fill:#858585; stroke:none;" d="M48 88C42.5282 93.951 37.1246 95.683 30 99C34.2042 104.851 40.2542 101.142 45 98L44 95L49 94C48.8384 91.8472 48.7515 89.9975 48 88z"/>
<path style="fill:#a7a7a7; stroke:none;" d="M49 88L49 92C49.7102 90.2405 49.7102 89.7595 49 88z"/>
<path style="fill:#a3b0b2; stroke:none;" d="M58 88C57.3428 92.5586 55.6533 96.0977 60 99C59.5415 95.3724 59.4173 91.3464 58 88z"/>
<path style="fill:#e9e5d1; stroke:none;" d="M124 88L124 93C124.83 90.9695 124.83 90.0305 124 88z"/>
<path style="fill:#9e0918; stroke:none;" d="M125 88L125 96C126.161 93.2301 126.161 90.7699 125 88z"/>
<path style="fill:#ffc4b3; stroke:none;" d="M145.333 88.6667C145.278 88.7223 145.222 89.7778 145.667 89.3333C145.722 89.2778 145.778 88.2222 145.333 88.6667z"/>
<path style="fill:#ab0c15; stroke:none;" d="M189 88L189 91C189.696 89.4463 189.696 89.5537 189 88z"/>
<path style="fill:#ba3636; stroke:none;" d="M193 88C191.754 90.5673 190.871 91.0857 188 91C188.004 96.6327 187.662 102.226 194 104C194 98.5627 194.319 93.3877 195 88L193 88z"/>
<path style="fill:#d9b29e; stroke:none;" d="M215.333 88.6667C215.278 88.7222 215.222 89.7778 215.667 89.3333C215.722 89.2778 215.778 88.2222 215.333 88.6667z"/>
<path style="fill:#cb0005; stroke:none;" d="M236 88C237.458 89.0811 238.248 89.4361 240 90C238.457 88.7333 237.952 88.5108 236 88z"/>
<path style="fill:#a7796e; stroke:none;" d="M244 88L245 89L244 88z"/>
<path style="fill:#fbfbfb; stroke:none;" d="M264 88C261.289 93.9059 255.05 95.7823 249.285 97.4653C242.022 99.5852 234.145 101.163 227.09 103.877C222.101 105.796 218.224 109.327 213 111C214.248 111.685 214.548 111.749 216 112C207.888 114.432 200.509 116.925 192 118L192 121C181.118 121.037 169.773 127.27 159.961 131.586C153.788 134.301 145.66 134.576 139.093 136.299C136.241 137.047 134.553 139.559 131.816 140.488C125.692 142.565 118.48 143.995 112 144C109.453 149.529 105.057 148.286 100 150.031C96.7923 151.137 93.3017 151.413 90.1844 152.562C88.0675 153.343 86.6932 155.213 84.6752 156.147C82.2716 157.258 79.5001 156.894 77 157.698C72.283 159.215 69.1019 160.954 64 161C59.9137 168.074 47.242 166.995 40 167C42.6127 168.098 45.1645 167.993 48 168C37.826 171.051 26.6804 176.91 16 177L16 180L0 180L0 184C13.5829 184 26.5453 182 40 182L40 176C48.0677 175.972 55.7693 174 64 174L64 168C72.0677 167.972 79.7693 166 88 166L88 160C96.023 159.763 103.753 158 112 158L112 152C120.023 151.763 127.753 150 136 150L136 144C144.023 143.763 151.753 142 160 142L160 136C165.474 135.838 170.424 134.004 176 134L176 131L184 131L184 128C189.542 127.981 194.488 126.061 200 126L200 120C208.089 119.586 215.745 118 224 118L224 112C227.809 111.888 231.258 110.108 235 110.108C239.372 110.108 243.484 111.985 248 112L248 104C253.542 103.981 258.488 102.061 264 102L264 96L270 96L270 88L264 88z"/>
<path style="fill:#a0a0a0; stroke:none;" d="M32 97C28.5491 96.5742 26.1119 97.1335 24 100L31 101C31.6139 96.2759 38.287 97.012 41.6944 94.8889C44.0992 93.3904 45.288 91.2338 48 90C42.7871 88.0963 34.6727 92.3379 32 97z"/>
<path style="fill:#ff584d; stroke:none;" d="M103 89L104 90L103 89z"/>
<path style="fill:#c4a296; stroke:none;" d="M149 89L150 90L149 89z"/>
<path style="fill:#5d0402; stroke:none;" d="M150 89L151 90L150 89z"/>
<path style="fill:#ec7982; stroke:none;" d="M179 89L180 90L179 89z"/>
<path style="fill:#915247; stroke:none;" d="M219 89L220 90L219 89z"/>
<path style="fill:#a66055; stroke:none;" d="M240.667 89.3333C240.222 89.7777 241.278 89.7223 241.333 89.6667C241.778 89.2222 240.722 89.2778 240.667 89.3333z"/>
<path style="fill:#cbccce; stroke:none;" d="M56 90L56 95C57.0623 93.3068 57.5196 91.9596 58 90L56 90z"/>
<path style="fill:#d90000; stroke:none;" d="M103.333 90.6667C103.278 90.7222 103.222 91.7778 103.667 91.3333C103.722 91.2778 103.778 90.2222 103.333 90.6667z"/>
<path style="fill:#f90312; stroke:none;" d="M144.333 90.6667C144.278 90.7223 144.222 91.7777 144.667 91.3333C144.722 91.2778 144.778 90.2222 144.333 90.6667z"/>
<path style="fill:#f98996; stroke:none;" d="M145 90L145 94C145.71 92.2405 145.71 91.7595 145 90z"/>
<path style="fill:#a04f4e; stroke:none;" d="M150 90L151 91L150 90z"/>
<path style="fill:#880608; stroke:none;" d="M154 94C155.951 92.74 156.84 91.9813 158 90C155.751 91.1536 155.154 91.7511 154 94z"/>
<path style="fill:#e5010b; stroke:none;" d="M179 90C179.684 92.209 180.08 92.7034 182 94C181.064 92.0514 180.608 91.4498 179 90z"/>
<path style="fill:#ff9798; stroke:none;" d="M180 90L181 91L180 90z"/>
<path style="fill:#ed9291; stroke:none;" d="M188 90L189 91L188 90z"/>
<path style="fill:#edfbf6; stroke:none;" d="M217 90C218.139 91.0154 218.612 91.3087 220 92C218.964 93.1863 218.661 93.6036 218 95L222 93C220.283 91.1602 219.434 90.6514 217 90z"/>
<path style="fill:#a84e59; stroke:none;" d="M220 90L221 91L220 90z"/>
<path style="fill:#930f0b; stroke:none;" d="M221 90C222.223 91.1952 222.42 91.3164 224 92C222.777 90.8048 222.58 90.6836 221 90z"/>
<path style="fill:#879f7e; stroke:none;" d="M238.667 90.3333C238.222 90.7777 239.278 90.7223 239.333 90.6667C239.778 90.2222 238.722 90.2778 238.667 90.3333z"/>
<path style="fill:#656565; stroke:none;" d="M48.3333 91.6667C48.2778 91.7222 48.2222 92.7778 48.6667 92.3333C48.7223 92.2777 48.7778 91.2222 48.3333 91.6667z"/>
<path style="fill:#517f59; stroke:none;" d="M59 91L59 94C59.6961 92.4463 59.6961 92.5537 59 91z"/>
<path style="fill:#fbc4bd; stroke:none;" d="M104 91L105 92L104 91z"/>
<path style="fill:#63241c; stroke:none;" d="M152.333 91.6667C152.278 91.7223 152.222 92.7778 152.667 92.3333C152.722 92.2778 152.778 91.2222 152.333 91.6667z"/>
<path style="fill:#b30b13; stroke:none;" d="M158 91L156 92C157.482 92.7911 158.796 92.8698 158 91z"/>
<path style="fill:#cf9a97; stroke:none;" d="M221 91L222 92L221 91z"/>
<path style="fill:#730009; stroke:none;" d="M228 91C229.506 91.683 230.315 91.8259 232 92C230.494 91.317 229.685 91.1741 228 91z"/>
<path style="fill:#746959; stroke:none;" d="M235 91L236 92L235 91z"/>
<path style="fill:#99a790; stroke:none;" d="M236 91L237 92L236 91z"/>
<path style="fill:#c8d7d0; stroke:none;" d="M232 93C234.706 93.9653 236.55 93.4659 239 92C236.296 91.755 234.566 92.0816 232 93z"/>
<path style="fill:#62230f; stroke:none;" d="M82 92L81 94L83 94C83 92.1468 83.2997 92.6498 82 92z"/>
<path style="fill:#c85354; stroke:none;" d="M104 92L105 93L104 92z"/>
<path style="fill:#c8000a; stroke:none;" d="M144 92L144 96C144.71 94.2405 144.71 93.7595 144 92z"/>
<path style="fill:#d3b9c4; stroke:none;" d="M151 92L152 93L151 92z"/>
<path style="fill:#d80000; stroke:none;" d="M213 92L213 96C213.71 94.2405 213.71 93.7595 213 92z"/>
<path style="fill:#e9baaf; stroke:none;" d="M222 92L223 93L222 92z"/>
<path style="fill:#745148; stroke:none;" d="M228.667 92.3333C228.222 92.7777 229.278 92.7222 229.333 92.6667C229.778 92.2222 228.722 92.2778 228.667 92.3333z"/>
<path style="fill:#7f7767; stroke:none;" d="M230 92C231.248 92.6848 231.548 92.7488 233 93C231.752 92.3152 231.452 92.2512 230 92z"/>
<path style="fill:#7c2e2c; stroke:none;" d="M72 95C72.5977 96.1954 72.4661 95.9774 74 97C76.4575 95.8494 78.4245 95.2273 80 93L72 95z"/>
<path style="fill:#763a54; stroke:none;" d="M80.3333 93.6667C80.2778 93.7222 80.2222 94.7778 80.6667 94.3333C80.7222 94.2778 80.7778 93.2222 80.3333 93.6667z"/>
<path style="fill:#e2c9c4; stroke:none;" d="M124 93L124 99C124.951 96.7147 124.951 95.2853 124 93z"/>
<path style="fill:#ff6465; stroke:none;" d="M152.333 93.6667C152.278 93.7222 152.222 94.7778 152.667 94.3333C152.722 94.2778 152.778 93.2222 152.333 93.6667z"/>
<path style="fill:#d33443; stroke:none;" d="M182 93L183 94L182 93z"/>
<path style="fill:#cc7c7a; stroke:none;" d="M214 93L215 94L214 93z"/>
<path style="fill:#c3bcc4; stroke:none;" d="M221 93L219 94C220.482 94.7912 221.796 94.8698 221 93z"/>
<path style="fill:#fff7ee; stroke:none;" d="M222 93L223 94L222 93z"/>
<path style="fill:#7f9494; stroke:none;" d="M222 94C223.724 95.0555 223.921 95.0358 226 95C224.265 93.9499 224.069 93.9538 222 94z"/>
<path style="fill:#956968; stroke:none;" d="M224 93C225.248 93.6848 225.548 93.7488 227 94C225.752 93.3152 225.452 93.2512 224 93z"/>
<path style="fill:#898d7f; stroke:none;" d="M227 93C228.248 93.6848 228.548 93.7488 230 94C228.752 93.3152 228.452 93.2512 227 93z"/>
<path style="fill:#99c3ae; stroke:none;" d="M230.667 93.3333C230.222 93.7777 231.278 93.7222 231.333 93.6667C231.778 93.2222 230.722 93.2778 230.667 93.3333z"/>
<path style="fill:#e3e3e3; stroke:none;" d="M224 98C228.486 99.552 234.466 96.1861 239 95C233.799 92.0298 228.558 95.133 224 98z"/>
<path style="fill:#777777; stroke:none;" d="M44 95C44.1798 97.0378 44.1639 97.4482 43 99C46.1023 98.3865 46.8321 96.9277 48 94L44 95z"/>
<path style="fill:#cbcbcb; stroke:none;" d="M48 94L49 95L48 94z"/>
<path style="fill:#a97c88; stroke:none;" d="M59 94L59 96C60.6352 95.4549 60.4549 95.6352 61 94L59 94z"/>
<path style="fill:#97a495; stroke:none;" d="M81 94L82 95L81 94z"/>
<path style="fill:#e5dabf; stroke:none;" d="M82 94L83 95L82 94z"/>
<path style="fill:#fdaaa3; stroke:none;" d="M105 94L106 95L105 94z"/>
<path style="fill:#fb7470; stroke:none;" d="M145.333 94.6667C145.278 94.7223 145.222 95.7778 145.667 95.3333C145.722 95.2778 145.778 94.2222 145.333 94.6667z"/>
<path style="fill:#f46e5f; stroke:none;" d="M183 94L184 95L183 94z"/>
<path style="fill:#fd939f; stroke:none;" d="M187 94L188 95L187 94z"/>
<path style="fill:#fbddcf; stroke:none;" d="M214 94L214 97C214.696 95.4463 214.696 95.5537 214 94z"/>
<path style="fill:#c6d4cd; stroke:none;" d="M216 96L219 96L218 94C216.365 94.5451 216.545 94.3648 216 96z"/>
<path style="fill:#9eaea5; stroke:none;" d="M226 94C227.248 94.6848 227.548 94.7488 229 95C227.752 94.3152 227.452 94.2512 226 94z"/>
<path style="fill:#7d7e6e; stroke:none;" d="M60 95L60 98C60.6961 96.4463 60.6961 96.5537 60 95z"/>
<path style="fill:#600511; stroke:none;" d="M75.6667 95.3333C75.2222 95.7778 76.2778 95.7222 76.3333 95.6667C76.7778 95.2222 75.7222 95.2778 75.6667 95.3333z"/>
<path style="fill:#b78c91; stroke:none;" d="M78 95L79 96L78 95z"/>
<path style="fill:#ffffff; stroke:none;" d="M69 141C71.7097 140.519 74.2857 139.227 76.9961 138.888C79.8248 138.534 81.4323 139.397 84 138C85.2228 139.195 85.42 139.316 87 140L95 134C95 135.797 95.0143 135.521 96 137C97.0106 133.582 95.4485 130.319 94.3326 127C91.966 119.96 89.2942 113.019 86.8611 106C85.847 103.074 85.3292 97.8683 82.49 96.0679C80.0195 94.5013 76.4524 96.195 74 97.0008C66.2718 99.5399 60.2748 105.535 58.6034 113.999C57.1287 121.468 65.9589 121.003 68.6427 126.108C70.6824 129.988 69.0005 136.672 69 141z"/>
<path style="fill:#f47070; stroke:none;" d="M83 95L84 96L83 95z"/>
<path style="fill:#c56865; stroke:none;" d="M105 95L106 96L105 95z"/>
<path style="fill:#e3636a; stroke:none;" d="M149 95L150 96L149 95z"/>
<path style="fill:#c2a6b9; stroke:none;" d="M184 95L185 96L184 95z"/>
<path style="fill:#d8415e; stroke:none;" d="M187 95L188 96L187 95z"/>
<path style="fill:#848385; stroke:none;" d="M214 99C216.899 98.3276 219.48 97.5852 222 96C218.454 95.4831 216.077 95.9697 214 99z"/>
<path style="fill:#676e7d; stroke:none;" d="M221.667 95.3333C221.222 95.7777 222.278 95.7222 222.333 95.6667C222.778 95.2222 221.722 95.2778 221.667 95.3333z"/>
<path style="fill:#bcb4b5; stroke:none;" d="M224.667 95.3333C224.222 95.7777 225.278 95.7222 225.333 95.6667C225.778 95.2222 224.722 95.2778 224.667 95.3333z"/>
<path style="fill:#d7d7d7; stroke:none;" d="M218 98C222.061 99.5925 225.233 98.1397 228 95C224.526 95.7188 221.26 96.5969 218 98z"/>
<path style="fill:#eed3db; stroke:none;" d="M56.3333 96.6667C56.2778 96.7222 56.2222 97.7778 56.6667 97.3333C56.7222 97.2778 56.7778 96.2222 56.3333 96.6667z"/>
<path style="fill:#a65250; stroke:none;" d="M61.3333 96.6667C61.2778 96.7222 61.2222 97.7778 61.6667 97.3333C61.7222 97.2778 61.7778 96.2222 61.3333 96.6667z"/>
<path style="fill:#bf3943; stroke:none;" d="M67.6667 96.3333C67.2222 96.7778 68.2778 96.7222 68.3333 96.6667C68.7778 96.2222 67.7222 96.2778 67.6667 96.3333z"/>
<path style="fill:#6a3a2c; stroke:none;" d="M67 97C68.9433 97.6218 69.949 97.4358 72 97C70.0567 96.3782 69.051 96.5642 67 97z"/>
<path style="fill:#54191c; stroke:none;" d="M72.6667 96.3333C72.2222 96.7778 73.2778 96.7222 73.3333 96.6667C73.7778 96.2222 72.7222 96.2778 72.6667 96.3333z"/>
<path style="fill:#ba9495; stroke:none;" d="M75 96L76 97L75 96z"/>
<path style="fill:#e1000f; stroke:none;" d="M105.333 96.6667C105.278 96.7222 105.222 97.7778 105.667 97.3333C105.722 97.2778 105.778 96.2222 105.333 96.6667z"/>
<path style="fill:#93182a; stroke:none;" d="M125 96L125 104C126.161 101.23 126.161 98.7698 125 96z"/>
<path style="fill:#ff5754; stroke:none;" d="M145.667 96.3333C145.222 96.7777 146.278 96.7223 146.333 96.6667C146.778 96.2222 145.722 96.2778 145.667 96.3333z"/>
<path style="fill:#f4a085; stroke:none;" d="M185 96L186 97L185 96z"/>
<path style="fill:#ae2525; stroke:none;" d="M187 96L186 99C187.766 98.0214 187.955 97.7782 187 96z"/>
<path style="fill:#fefefe; stroke:none;" d="M264 96L264 102C258.458 102.019 253.512 103.939 248 104L248 120L224 120L224 128L200 128L200 136L184 136L184 144L160 144L160 152L136 152L136 160L112 160L112 168L88 168L88 176L64 176L64 184L48 184L48 187L160 187L160 184L176 184L176 176L192 176L192 168L216 168L216 160L240 160L240 152L264 152L264 144L270 144L270 96L264 96z"/>
<path style="fill:#d3d3d3; stroke:none;" d="M46 97L47 98L46 97z"/>
<path style="fill:#99392c; stroke:none;" d="M65.6667 97.3333C65.2222 97.7778 66.2778 97.7222 66.3333 97.6667C66.7778 97.2222 65.7222 97.2778 65.6667 97.3333z"/>
<path style="fill:#820720; stroke:none;" d="M70.6667 97.3333C70.2222 97.7778 71.2778 97.7222 71.3333 97.6667C71.7778 97.2222 70.7222 97.2778 70.6667 97.3333z"/>
<path style="fill:#c7a49f; stroke:none;" d="M72 97L73 98L72 97z"/>
<path style="fill:#e82020; stroke:none;" d="M85 97C85.6244 101.502 87.7767 104.808 89.24 109.015C90.3785 112.288 90.6999 115.802 92.0594 119C94.5794 124.928 97.4183 129.328 97 136C104.005 137.609 109.585 132.375 116 134C116.869 128.842 115.148 124.021 114 119C112.203 119 112.479 119.014 111 120C110.752 116.26 109.507 113.399 108 110C110.006 108.873 110.006 108.127 108 107C108.269 104.055 107.843 101.834 107 99C101.358 103.074 94.6651 102 88 102L88 97C86.3874 97.9816 86.5069 98.1104 85 97z"/>
<path style="fill:#ffb8be; stroke:none;" d="M106 97L107 98L106 97z"/>
<path style="fill:#e69683; stroke:none;" d="M186 97L187 98L186 97z"/>
<path style="fill:#ae1f0a; stroke:none;" d="M207.667 97.3333C207.222 97.7777 208.278 97.7223 208.333 97.6667C208.778 97.2222 207.722 97.2778 207.667 97.3333z"/>
<path style="fill:#c3c3c3; stroke:none;" d="M57 98C51.5031 104.53 45.0291 105 37 105L37 107C45.6518 107 51.2746 106.05 59 102C58.4361 100.248 58.0811 99.458 57 98z"/>
<path style="fill:#959c9b; stroke:none;" d="M58 98C59.1266 100.006 59.8734 100.006 61 98L58 98z"/>
<path style="fill:#848484; stroke:none;" d="M61 98C59.6308 100.235 58.0315 101.943 60 104C59.0143 105.479 59 105.203 59 107C57.3121 106.311 56.9315 106.324 56 105C49.2783 107.067 44.0946 108 37 108L37 110C42.7434 110 53.8707 107.415 56 114C61.1697 110.863 65.207 103.217 61 98z"/>
<path style="fill:#7a171d; stroke:none;" d="M62 98C64.4379 99.7094 66.0595 99.4686 69 99C66.7172 98.0864 64.4609 98.1876 62 98z"/>
<path style="fill:#815a46; stroke:none;" d="M64 98L65 99L64 98z"/>
<path style="fill:#c29095; stroke:none;" d="M69 98L70 99L69 98z"/>
<path style="fill:#b49f80; stroke:none;" d="M84 98L85 99L84 98z"/>
<path style="fill:#b4b4b4; stroke:none;" d="M216.667 98.3333C216.222 98.7777 217.278 98.7223 217.333 98.6667C217.778 98.2222 216.722 98.2778 216.667 98.3333z"/>
<path style="fill:#ededed; stroke:none;" d="M136 134C143.152 132.136 150.497 127.009 158 128C160.912 125.601 164.683 123.891 168 122C170.893 124.899 176.631 120.685 179.961 119.306C184.563 117.399 188.633 114.364 193.285 112.529C199.959 109.896 208.887 108.403 216 107L216 103L220 103L222 99C212.329 97.2933 203.158 105.667 194.778 109.361C186.619 112.958 177.664 114.673 169.222 117.306C164.46 118.791 160.5 121.518 156 123.361C150.234 125.722 137.593 126.528 136 134z"/>
<path style="fill:#aeaeae; stroke:none;" d="M42 99C40.7772 100.195 40.58 100.316 39 101C42.4934 102.425 47.1934 102.645 51 103C48.8133 100.115 45.4522 99.7154 42 99z"/>
<path style="fill:#c6afab; stroke:none;" d="M66 99L67 100L66 99z"/>
<path style="fill:#bda49f; stroke:none;" d="M124 99L124 104C124.83 101.969 124.83 101.03 124 99z"/>
<path style="fill:#d10001; stroke:none;" d="M209 99C210.506 99.6831 211.315 99.8259 213 100C211.494 99.317 210.685 99.1741 209 99z"/>
<path style="fill:#b28a83; stroke:none;" d="M213 99L214 100L213 99z"/>
<path style="fill:#cccccc; stroke:none;" d="M25 100L26 101L25 100z"/>
<path style="fill:#777777; stroke:none;" d="M26.6667 100.333C26.2222 100.778 27.2778 100.722 27.3333 100.667C27.7778 100.222 26.7222 100.278 26.6667 100.333z"/>
<path style="fill:#5e6c6c; stroke:none;" d="M63 100L63 103C63.6961 101.446 63.6961 101.554 63 100z"/>
<path style="fill:#7e8387; stroke:none;" d="M64.3333 100.667C64.2778 100.722 64.2222 101.778 64.6667 101.333C64.7222 101.278 64.7778 100.222 64.3333 100.667z"/>
<path style="fill:#af313a; stroke:none;" d="M85 100L86 101L85 100z"/>
<path style="fill:#fca99e; stroke:none;" d="M107 100L108 101L107 100z"/>
<path style="fill:#f01c1b; stroke:none;" d="M202 100L203 103L206 102C204.542 100.919 203.752 100.564 202 100z"/>
<path style="fill:#9c8470; stroke:none;" d="M210 100L211 101L210 100z"/>
<path style="fill:#afdcc1; stroke:none;" d="M211.667 100.333C211.222 100.778 212.278 100.722 212.333 100.667C212.778 100.222 211.722 100.278 211.667 100.333z"/>
<path style="fill:#b9b9b9; stroke:none;" d="M27 101L28 102L27 101z"/>
<path style="fill:#696969; stroke:none;" d="M28 101C30.8886 102.731 33.6613 102.929 37 103C34.1706 101.729 31.0838 101.392 28 101z"/>
<path style="fill:#c5c5c5; stroke:none;" d="M42 102C43.7691 102.779 45.0359 102.912 47 103C45.0815 101.856 44.2681 101.826 42 102z"/>
<path style="fill:#e5e5e5; stroke:none;" d="M51 101L51 103L53 103L53 101L51 101z"/>
<path style="fill:#ba9e93; stroke:none;" d="M85 101L86 102L85 101z"/>
<path style="fill:#a45f47; stroke:none;" d="M207 101L208 102L207 101z"/>
<path style="fill:#c0dbc8; stroke:none;" d="M205 102C207.044 102.774 207.845 102.592 210 102C208.154 101.532 206.931 101.699 205 102z"/>
<path style="fill:#9e9e9e; stroke:none;" d="M30 102L31 103L30 102z"/>
<path style="fill:#acacac; stroke:none;" d="M38 102L39 103L38 102z"/>
<path style="fill:#d7d7d7; stroke:none;" d="M34 103C38.3822 106.406 45.8887 105.217 51 104C45.7805 101.805 39.5265 102.579 34 103z"/>
<path style="fill:#e7bed2; stroke:none;" d="M64 102L65 103L64 102z"/>
<path style="fill:#956154; stroke:none;" d="M204 102L205 103L204 102z"/>
<path style="fill:#989999; stroke:none;" d="M54 104L59 107L60 104C57.6403 103.52 56.3374 103.481 54 104z"/>
<path style="fill:#ffa7ba; stroke:none;" d="M108 103L109 104L108 103z"/>
<path style="fill:#a1483c; stroke:none;" d="M201 103L202 104L201 103z"/>
<path style="fill:#9aaa85; stroke:none;" d="M202 103L203 104L202 103z"/>
<path style="fill:#cfdfdc; stroke:none;" d="M189 108C193.863 111.311 202.072 107.663 205 103L189 108z"/>
<path style="fill:#c5c5c5; stroke:none;" d="M63 104L64 105L63 104z"/>
<path style="fill:#ece7c9; stroke:none;" d="M86.3333 104.667C86.2778 104.722 86.2222 105.778 86.6667 105.333C86.7222 105.278 86.7778 104.222 86.3333 104.667z"/>
<path style="fill:#e10016; stroke:none;" d="M87.3333 104.667C87.2778 104.722 87.2222 105.778 87.6667 105.333C87.7222 105.278 87.7778 104.222 87.3333 104.667z"/>
<path style="fill:#b56a71; stroke:none;" d="M124 104L124 112C125.161 109.23 125.161 106.77 124 104z"/>
<path style="fill:#8e3434; stroke:none;" d="M125 104C124.999 111.906 125.791 121.391 124 129C128.813 125.88 126.254 119.9 126.039 115C125.876 111.261 126.462 107.484 125 104z"/>
<path style="fill:#b33634; stroke:none;" d="M127 104L126 120L128 120C128 114.91 128.982 108.724 127 104z"/>
<path style="fill:#fa0903; stroke:none;" d="M160 104C161.248 104.685 161.548 104.749 163 105C161.752 104.315 161.452 104.251 160 104z"/>
<path style="fill:#6b4732; stroke:none;" d="M167 104L167 107C167.696 105.446 167.696 105.554 167 104z"/>
<path style="fill:#ba221f; stroke:none;" d="M168 104C168.406 106.092 168.217 106.02 170 107C169.309 105.612 169.015 105.139 168 104z"/>
<path style="fill:#9d1e00; stroke:none;" d="M192 104C193.248 104.685 193.548 104.749 195 105C193.752 104.315 193.452 104.251 192 104z"/>
<path style="fill:#b2414a; stroke:none;" d="M198 104L199 105L198 104z"/>
<path style="fill:#aa8978; stroke:none;" d="M199 104L200 105L199 104z"/>
<path style="fill:#a1a1a1; stroke:none;" d="M52.6667 105.333C52.2222 105.778 53.2778 105.722 53.3333 105.667C53.7778 105.222 52.7222 105.278 52.6667 105.333z"/>
<path style="fill:#c4c4c4; stroke:none;" d="M56 105L56 107C57.6352 106.455 57.4549 106.635 58 105L56 105z"/>
<path style="fill:#cd0000; stroke:none;" d="M108.333 105.667C108.278 105.722 108.222 106.778 108.667 106.333C108.722 106.278 108.778 105.222 108.333 105.667z"/>
<path style="fill:#e30913; stroke:none;" d="M149 109C153.487 109.942 158.564 107.026 163 106C157.745 103.8 153.567 106.414 149 109z"/>
<path style="fill:#911c2c; stroke:none;" d="M163 105L163 109C164.608 107.55 165.064 106.949 166 105L163 105z"/>
<path style="fill:#621a1a; stroke:none;" d="M166.333 105.667C166.278 105.722 166.222 106.778 166.667 106.333C166.722 106.278 166.778 105.222 166.333 105.667z"/>
<path style="fill:#a28873; stroke:none;" d="M196 105L197 106L196 105z"/>
<path style="fill:#ebebeb; stroke:none;" d="M36 106L36 110C36.7102 108.241 36.7102 107.759 36 106z"/>
<path style="fill:#a0a0a0; stroke:none;" d="M37 107C41.4309 108.859 47.4578 108.343 52 107C47.4668 105.911 41.7559 107 37 107z"/>
<path style="fill:#666666; stroke:none;" d="M61.3333 106.667C61.2778 106.722 61.2222 107.778 61.6667 107.333C61.7222 107.278 61.7778 106.222 61.3333 106.667z"/>
<path style="fill:#d64055; stroke:none;" d="M87 106L88 107L87 106z"/>
<path style="fill:#d80000; stroke:none;" d="M88 106L88 109C88.6961 107.446 88.6961 107.554 88 106z"/>
<path style="fill:#ff8484; stroke:none;" d="M109 106L110 107L109 106z"/>
<path style="fill:#f5b6b3; stroke:none;" d="M160.667 106.333C160.222 106.778 161.278 106.722 161.333 106.667C161.778 106.222 160.722 106.278 160.667 106.333z"/>
<path style="fill:#5e1a19; stroke:none;" d="M162 106L163 107L162 106z"/>
<path style="fill:#b42646; stroke:none;" d="M192 106L193 107L192 106z"/>
<path style="fill:#b66a74; stroke:none;" d="M193 106L194 107L193 106z"/>
<path style="fill:#eba1af; stroke:none;" d="M87 107L88 108L87 107z"/>
<path style="fill:#c8331f; stroke:none;" d="M91 107L91 112C91.8299 109.97 91.8299 109.03 91 107z"/>
<path style="fill:#ee8687; stroke:none;" d="M157 107L158 108L157 107z"/>
<path style="fill:#fffffa; stroke:none;" d="M149 110C150.462 112.433 151.288 113.177 154 114C153.528 112.584 153.186 112.186 152 111C156.375 111.539 160.831 110.695 165 112C161.06 104.983 155.376 108.525 149 110z"/>
<path style="fill:#79786d; stroke:none;" d="M162 107L163 108L162 107z"/>
<path style="fill:#81302d; stroke:none;" d="M165 107L166 113C169.282 111.748 170.272 110.425 171 107L165 107z"/>
<path style="fill:#b46761; stroke:none;" d="M190 107L191 108L190 107z"/>
<path style="fill:#aaac8d; stroke:none;" d="M191 107L192 108L191 107z"/>
<path style="fill:#616161; stroke:none;" d="M60.3333 108.667C60.2778 108.722 60.2222 109.778 60.6667 109.333C60.7223 109.278 60.7778 108.222 60.3333 108.667z"/>
<path style="fill:#c3c3c3; stroke:none;" d="M61 108L62 109L61 108z"/>
<path style="fill:#e67b7b; stroke:none;" d="M154 108L155 109L154 108z"/>
<path style="fill:#60060a; stroke:none;" d="M164.333 108.667C164.278 108.722 164.222 109.778 164.667 109.333C164.722 109.278 164.778 108.222 164.333 108.667z"/>
<path style="fill:#925d4f; stroke:none;" d="M187 108L188 109L187 108z"/>
<path style="fill:#87b390; stroke:none;" d="M188 108L189 109L188 108z"/>
<path style="fill:#949494; stroke:none;" d="M50 110C51.2483 110.685 51.5484 110.749 53 111C53.2959 113.251 54.9521 116.596 53.8441 118.737C52.6488 121.046 49.5133 121.816 48 124L52 124L52 128C52.8742 125.948 52.9528 124.253 53 122C61.1423 120.223 57.5252 109.015 50 110z"/>
<path style="fill:#b44533; stroke:none;" d="M88 109L89 110L88 109z"/>
<path style="fill:#d8000f; stroke:none;" d="M89 109L89 112C89.6961 110.446 89.6961 110.554 89 109z"/>
<path style="fill:#f2918e; stroke:none;" d="M110 109L111 110L110 109z"/>
<path style="fill:#ff6269; stroke:none;" d="M151 109L152 110L151 109z"/>
<path style="fill:#ae1811; stroke:none;" d="M171 109C171.211 111.739 171.303 112.422 174 113C173.045 111.233 172.434 110.393 171 109z"/>
<path style="fill:#c40b11; stroke:none;" d="M181 111L184 110C182.222 109.045 181.979 109.234 181 111z"/>
<path style="fill:#a9877f; stroke:none;" d="M184.667 109.333C184.222 109.778 185.278 109.722 185.333 109.667C185.778 109.222 184.722 109.278 184.667 109.333z"/>
<path style="fill:#dedede; stroke:none;" d="M173 115C178.682 117.357 185.859 112.538 191 110C184.588 107.503 178.804 113.084 173 115z"/>
<path style="fill:#a6a6a6; stroke:none;" d="M37 110C40.196 112.906 43.8544 112.031 48 112C48.4125 115.492 48.575 118.516 48 122C55.5183 120.341 54.4186 117.368 53 111C47.6454 110.006 42.4296 110 37 110z"/>
<path style="fill:#d2b897; stroke:none;" d="M88 110L89 111L88 110z"/>
<path style="fill:#d71c16; stroke:none;" d="M108 110C109.046 113.401 110.538 116.449 111 120C113.275 116.73 112.028 113.669 111 110L108 110z"/>
<path style="fill:#c60008; stroke:none;" d="M146.667 110.333C146.222 110.778 147.278 110.722 147.333 110.667C147.778 110.222 146.722 110.278 146.667 110.333z"/>
<path style="fill:#ed4f60; stroke:none;" d="M148 110L149 111L148 110z"/>
<path style="fill:#f5f5f5; stroke:none;" d="M152 111C152.472 112.416 152.814 112.814 154 114L147 111L147 120C151.876 116.69 160.82 115.476 163 110C159.094 110.881 156.035 111.275 152 111z"/>
<path style="fill:#d5a29f; stroke:none;" d="M164 110L165 111L164 110z"/>
<path style="fill:#640000; stroke:none;" d="M165 110L166 111L165 110z"/>
<path style="fill:#751a14; stroke:none;" d="M170 110C169.455 111.635 169.635 111.455 168 112C170.033 112.785 170.785 112.033 170 110z"/>
<path style="fill:#b48380; stroke:none;" d="M182 110L183 111L182 110z"/>
<path style="fill:#fdfdfd; stroke:none;" d="M224 112L224 118C215.67 118 208.164 119.187 200 120L200 126C194.458 126.019 189.512 127.939 184 128L184 131L176 131L176 134C170.376 134.001 165.48 135.644 160 136L160 142C151.686 142 144.085 143.475 136 144L136 150C127.686 150 120.085 151.475 112 152L112 158C103.686 158 96.0849 159.475 88 160L88 166C79.7705 166 72.0346 167.911 64 168L64 174C55.7705 174 48.0346 175.911 40 176L40 182C26.5156 182 13.5873 184 0 184L0 187L48 187L48 184L64 184L64 176L88 176L88 168L112 168L112 160L136 160L136 152L160 152L160 144L184 144L184 136L200 136L200 128L224 128L224 120L248 120L248 112C243.482 111.95 239.436 110.037 235 110.037C231.206 110.037 227.784 111.754 224 112z"/>
<path style="fill:#d60002; stroke:none;" d="M145 111C144.989 115.08 144.51 118.963 144 123C147.045 120.339 146.478 114.521 145 111z"/>
<path style="fill:#ea9588; stroke:none;" d="M146 111L147 112L146 111z"/>
<path style="fill:#a55a62; stroke:none;" d="M165 111L166 112L165 111z"/>
<path style="fill:#b12f26; stroke:none;" d="M178 111L179 112L178 111z"/>
<path style="fill:#9f7d65; stroke:none;" d="M179 111L180 112L179 111z"/>
<path style="fill:#bebebe; stroke:none;" d="M40 112L40 126L47 125C46.377 129.365 46.9641 133.611 47 138C48.9535 135.916 50.267 134.187 48 132C49.7812 129.238 49.3753 127.221 49 124L45 124C48.546 119.886 48.9791 117.356 48 112L40 112z"/>
<path style="fill:#be505b; stroke:none;" d="M89 112L90 113L89 112z"/>
<path style="fill:#b3485b; stroke:none;" d="M124 112L124 115C124.696 113.446 124.696 113.554 124 112z"/>
<path style="fill:#ffbdb6; stroke:none;" d="M146 112L146 115C146.696 113.446 146.696 113.554 146 112z"/>
<path style="fill:#dedede; stroke:none;" d="M151 116C151 117.797 151.014 117.521 152 119C156.805 117.281 160.802 115.238 166 115L166 112C160.927 112.675 156.069 114.954 151 116z"/>
<path style="fill:#93aaaa; stroke:none;" d="M176.667 112.333C176.222 112.778 177.278 112.722 177.333 112.667C177.778 112.222 176.722 112.278 176.667 112.333z"/>
<path style="fill:#d0d0d0; stroke:none;" d="M57.3333 113.667C57.2778 113.722 57.2222 114.778 57.6667 114.333C57.7222 114.278 57.7778 113.222 57.3333 113.667z"/>
<path style="fill:#cfad9f; stroke:none;" d="M89 113L90 114L89 113z"/>
<path style="fill:#c20000; stroke:none;" d="M90.3333 113.667C90.2778 113.722 90.2222 114.778 90.6667 114.333C90.7222 114.278 90.7778 113.222 90.3333 113.667z"/>
<path style="fill:#7b766f; stroke:none;" d="M166 113C167.314 114.618 167.877 114.693 170 115C168.542 113.919 167.752 113.564 166 113z"/>
<path style="fill:#6d584d; stroke:none;" d="M168 113C169.769 113.779 171.036 113.912 173 114C171.231 113.221 169.964 113.088 168 113z"/>
<path style="fill:#acac9a; stroke:none;" d="M173.667 113.333C173.222 113.778 174.278 113.722 174.333 113.667C174.778 113.222 173.722 113.278 173.667 113.333z"/>
<path style="fill:#bed6cf; stroke:none;" d="M170 114C172.806 115.146 175.071 114.692 178 114C175.354 113.185 172.774 113.787 170 114z"/>
<path style="fill:#c45552; stroke:none;" d="M90 115L91 116L90 115z"/>
<path style="fill:#ff7486; stroke:none;" d="M112 115L113 116L112 115z"/>
<path style="fill:#e69a94; stroke:none;" d="M146.333 115.667C146.278 115.722 146.222 116.778 146.667 116.333C146.722 116.278 146.778 115.222 146.333 115.667z"/>
<path style="fill:#bbbfb7; stroke:none;" d="M160 115C161.248 115.685 161.548 115.749 163 116C161.752 115.315 161.452 115.251 160 115z"/>
<path style="fill:#838383; stroke:none;" d="M149 121C154.988 121.385 160.559 118.232 166 116C161.113 114.559 153.147 118.259 149 121z"/>
<path style="fill:#849a93; stroke:none;" d="M166.667 115.333C166.222 115.778 167.278 115.722 167.333 115.667C167.778 115.222 166.722 115.278 166.667 115.333z"/>
<path style="fill:#d1cad2; stroke:none;" d="M168 115L168 117L174 117C171.943 115.418 170.612 115.174 168 115z"/>
<path style="fill:#cdddbf; stroke:none;" d="M90 116L91 117L90 116z"/>
<path style="fill:#b7b7b7; stroke:none;" d="M155 117C156.943 117.622 157.949 117.436 160 117C158.057 116.378 157.051 116.564 155 117z"/>
<path style="fill:#99969a; stroke:none;" d="M164.667 116.333C164.222 116.778 165.278 116.722 165.333 116.667C165.778 116.222 164.722 116.278 164.667 116.333z"/>
<path style="fill:#b2c6c5; stroke:none;" d="M166 116C166.545 117.635 166.365 117.455 168 118L168 116L166 116z"/>
<path style="fill:#afafaf; stroke:none;" d="M58 117C58.3067 119.123 58.3821 119.686 60 121C59.4038 119.44 58.9114 118.377 58 117z"/>
<path style="fill:#cd7f79; stroke:none;" d="M146 117L146 121C146.71 119.241 146.71 118.759 146 117z"/>
<path style="fill:#d6d6d6; stroke:none;" d="M148 122L149 125C155.748 123.724 161.291 119.925 168 119C162.569 114.954 153.965 120.62 148 122z"/>
<path style="fill:#c16164; stroke:none;" d="M91 118L92 119L91 118z"/>
<path style="fill:#fb6269; stroke:none;" d="M113 118L114 119L113 118z"/>
<path style="fill:#cebec7; stroke:none;" d="M148 118L148 120L152 120L152 118L148 118z"/>
<path style="fill:#cbdaba; stroke:none;" d="M91 119L92 120L91 119z"/>
<path style="fill:#cafbed; stroke:none;" d="M172 119C173.506 119.683 174.315 119.826 176 120C174.494 119.317 173.685 119.174 172 119z"/>
<path style="fill:#ab020f; stroke:none;" d="M92 120L93 121L92 120z"/>
<path style="fill:#f5ccaa; stroke:none;" d="M114 120L115 121L114 120z"/>
<path style="fill:#970611; stroke:none;" d="M124 120L124 128C125.161 125.23 125.161 122.77 124 120z"/>
<path style="fill:#88c3aa; stroke:none;" d="M147.667 120.333C147.222 120.778 148.278 120.722 148.333 120.667C148.778 120.222 147.722 120.278 147.667 120.333z"/>
<path style="fill:#828282; stroke:none;" d="M53 122L53 130C56.0547 127.838 57.3749 124.327 59 121L53 122z"/>
<path style="fill:#959595; stroke:none;" d="M55 130C58.7931 129.648 62.7276 128.991 66 127C62.9699 126.212 60.4502 125.993 58 124L62 125L60 122C62.9319 123.704 65.7396 125.061 69 126C62.7318 119.561 56.8909 121.297 55 130z"/>
<path style="fill:#c37063; stroke:none;" d="M92 121L93 122L92 121z"/>
<path style="fill:#e60e06; stroke:none;" d="M93 121C93.6974 125.103 94.5887 130.415 98 133C97.1135 128.741 95.7315 124.414 93 121z"/>
<path style="fill:#dd6359; stroke:none;" d="M114 121L115 122L114 121z"/>
<path style="fill:#b9213f; stroke:none;" d="M146.333 121.667C146.278 121.722 146.222 122.778 146.667 122.333C146.722 122.278 146.778 121.222 146.333 121.667z"/>
<path style="fill:#7a656f; stroke:none;" d="M147 123L150 122C148.222 121.045 147.979 121.234 147 123z"/>
<path style="fill:#a9a9a9; stroke:none;" d="M45 122L45 124L48 124L48 122L45 122z"/>
<path style="fill:#a0a0a0; stroke:none;" d="M60 122C60.7679 123.314 60.6858 123.232 62 124C60.3161 124.224 59.6865 124.218 58 124C60.0634 126.687 62.7331 126.676 66 127C64.1027 129.228 63.6805 130.109 64 133C61.7404 135.36 63.5516 138.936 64 142C67.6861 139.344 69.5684 130.487 66.9722 126.39C65.4769 124.031 62.4369 123.025 60 122z"/>
<path style="fill:#e2e2e2; stroke:none;" d="M64.6667 122.333C64.2222 122.778 65.2778 122.722 65.3333 122.667C65.7778 122.222 64.7222 122.278 64.6667 122.333z"/>
<path style="fill:#b12a04; stroke:none;" d="M142.667 122.333C142.222 122.778 143.278 122.722 143.333 122.667C143.778 122.222 142.722 122.278 142.667 122.333z"/>
<path style="fill:#e6e6e6; stroke:none;" d="M66.6667 123.333C66.2222 123.778 67.2778 123.722 67.3333 123.667C67.7778 123.222 66.7222 123.278 66.6667 123.333z"/>
<path style="fill:#f4d1ba; stroke:none;" d="M115 123L116 124L115 123z"/>
<path style="fill:#d30210; stroke:none;" d="M130 127C133.982 128.381 139.502 126.329 142 123C137.603 123.45 134.036 125.322 130 127z"/>
<path style="fill:#ff0000; stroke:none;" d="M142.667 123.333C142.222 123.778 143.278 123.722 143.333 123.667C143.778 123.222 142.722 123.278 142.667 123.333z"/>
<path style="fill:#bd6e73; stroke:none;" d="M144.667 123.333C144.222 123.778 145.278 123.722 145.333 123.667C145.778 123.222 144.722 123.278 144.667 123.333z"/>
<path style="fill:#badfd9; stroke:none;" d="M145 124C147.148 125.332 147.606 125.096 149 123L145 124z"/>
<path style="fill:#b6b6b6; stroke:none;" d="M49 124C49.1409 126.743 49.3707 128.644 48 131C51.3281 139.101 39.3628 143.557 34 147C46.6175 150.363 53.1071 133.574 52 124L49 124z"/>
<path style="fill:#c07873; stroke:none;" d="M93 124L94 125L93 124z"/>
<path style="fill:#d55251; stroke:none;" d="M115 124L116 125L115 124z"/>
<path style="fill:#ebf1ee; stroke:none;" d="M118 124C118.57 128.552 122.611 129.942 124 125C121.714 125.008 120.118 124.838 118 124z"/>
<path style="fill:#b66b69; stroke:none;" d="M142 124L143 125L142 124z"/>
<path style="fill:#afcab5; stroke:none;" d="M143.667 124.333C143.222 124.778 144.278 124.722 144.333 124.667C144.778 124.222 143.722 124.278 143.667 124.333z"/>
<path style="fill:#c8c8c8; stroke:none;" d="M41 142C49.1479 140.261 46.6907 131.516 47 125C38.5437 125.973 41 135.426 41 142z"/>
<path style="fill:#a8584c; stroke:none;" d="M139 125L140 126L139 125z"/>
<path style="fill:#a1ad92; stroke:none;" d="M140 125L141 126L140 125z"/>
<path style="fill:#bbe8d9; stroke:none;" d="M141 125C142.248 125.685 142.548 125.749 144 126C142.752 125.315 142.452 125.251 141 125z"/>
<path style="fill:#dad5dd; stroke:none;" d="M133 128C137.548 130.703 143.04 129.373 146 125C141.585 125.832 137.289 126.64 133 128z"/>
<path style="fill:#737373; stroke:none;" d="M68 126L68 133C69.0595 130.466 69.0595 128.534 68 126z"/>
<path style="fill:#e7e7e7; stroke:none;" d="M69 126L69 131C69.8299 128.97 69.8299 128.03 69 126z"/>
<path style="fill:#c33639; stroke:none;" d="M94 126L95 127L94 126z"/>
<path style="fill:#f6a9a4; stroke:none;" d="M116 126L117 127L116 126z"/>
<path style="fill:#965050; stroke:none;" d="M136 126L137 127L136 126z"/>
<path style="fill:#aa8c7f; stroke:none;" d="M137 126L138 127L137 126z"/>
<path style="fill:#aa7a5e; stroke:none;" d="M94 127L95 128L94 127z"/>
<path style="fill:#e45361; stroke:none;" d="M116 127L117 128L116 127z"/>
<path style="fill:#a48767; stroke:none;" d="M134 127L135 128L134 127z"/>
<path style="fill:#828282; stroke:none;" d="M59 129C60.5745 130.758 61.9157 131.906 64 133L64 128L59 129z"/>
<path style="fill:#e90013; stroke:none;" d="M116 128L117 133C117.651 130.766 117.318 129.926 116 128z"/>
<path style="fill:#b8ffe5; stroke:none;" d="M117.667 128.333C117.222 128.778 118.278 128.722 118.333 128.667C118.778 128.222 117.722 128.278 117.667 128.333z"/>
<path style="fill:#ecc4e1; stroke:none;" d="M119.333 128.667C119.278 128.722 119.222 129.778 119.667 129.333C119.722 129.278 119.778 128.222 119.333 128.667z"/>
<path style="fill:#c1c6c9; stroke:none;" d="M118 129C120.148 131.262 122.241 130.316 124 128C121.958 128.476 120.087 128.926 118 129z"/>
<path style="fill:#b82a3d; stroke:none;" d="M130 128L131 129L130 128z"/>
<path style="fill:#b2747e; stroke:none;" d="M131 128L132 129L131 128z"/>
<path style="fill:#bbdfd1; stroke:none;" d="M130 129C131.506 129.683 132.315 129.826 134 130C132.276 128.945 132.079 128.964 130 129z"/>
<path style="fill:#eea7a3; stroke:none;" d="M117 129L118 130L117 129z"/>
<path style="fill:#9e6b67; stroke:none;" d="M124 129C125.248 129.685 125.548 129.749 127 130C125.752 129.315 125.452 129.251 124 129z"/>
<path style="fill:#b2ab8e; stroke:none;" d="M128.667 129.333C128.222 129.778 129.278 129.722 129.333 129.667C129.778 129.222 128.722 129.278 128.667 129.333z"/>
<path style="fill:#e6deea; stroke:none;" d="M128 135L134 134L132 131C134.733 131.293 137.262 131.23 140 131C135.271 128.541 129.027 129.082 128 135z"/>
<path style="fill:#5e5e5e; stroke:none;" d="M52 130C54.8897 131.213 57.8741 130.998 61 131C58.1103 129.787 55.1259 130.002 52 130z"/>
<path style="fill:#ec859b; stroke:none;" d="M95 130L96 131L95 130z"/>
<path style="fill:#c72a18; stroke:none;" d="M99 130L99 136C99.9511 133.715 99.9511 132.285 99 130z"/>
<path style="fill:#9c8995; stroke:none;" d="M118 134C120.328 132.817 122.511 131.777 125 131C121.771 129.592 119 130.58 118 134z"/>
<path style="fill:#cee1dd; stroke:none;" d="M122 132C125.185 132.742 126.982 132.262 130 131C127.034 129.843 124.705 130.38 122 132z"/>
<path style="fill:#ffffff; stroke:none;" d="M53 131C52.3681 136.066 50.2677 141.972 45.8951 145.006C41.6682 147.939 36.6932 148.255 34 153C36.8111 153.701 39.3037 154.941 42 156L40 152C42.7896 152.429 46.8655 153.151 49.625 152.306C54.009 150.962 55.991 149.018 61 149C62.3286 142.528 62.1356 137.57 62 131L53 131z"/>
<path style="fill:#e1e1e1; stroke:none;" d="M40 132C39.9114 139.483 35.4459 140.319 32 146C35.0154 144.6 37.8251 143.004 41 142C40.9996 138.586 41.3274 135.163 40 132z"/>
<path style="fill:#8c8c8c; stroke:none;" d="M52 132C51.4382 133.801 51.1759 135.122 51 137C52.1326 135.101 52.4734 134.143 52 132z"/>
<path style="fill:#c91f11; stroke:none;" d="M112 132C111.043 133.517 110.613 134.339 110 136L114 135C113.309 133.612 113.015 133.139 112 132z"/>
<path style="fill:#cececa; stroke:none;" d="M119 135C120.924 133.999 121.098 133.923 122 132C119.876 132.899 119.899 132.876 119 135z"/>
<path style="fill:#e3e4e3; stroke:none;" d="M122 132C120.527 133.443 120.032 133.794 118 134L118 136L116 135C113.872 137.029 111.726 137.89 109 139C112.749 140.108 125.111 137.232 122 132z"/>
<path style="fill:#ededed; stroke:none;" d="M127 132C122.45 134.847 118.188 137.383 113 138.961C109.444 140.042 105.413 140.015 103 143C95.5967 141.621 86.4164 146.397 80 150C84.6835 151.436 88.7422 148.725 93.169 147.465C101.315 145.148 108.301 142.024 117 142L117 139C121.357 138.907 129.122 138.111 127 132z"/>
<path style="fill:#8c8c8c; stroke:none;" d="M68 133C67.0329 136.278 66.2416 139.589 69 142C68.4092 138.983 68.8927 135.865 68 133z"/>
<path style="fill:#d5836e; stroke:none;" d="M96 133L97 134L96 133z"/>
<path style="fill:#ff000a; stroke:none;" d="M113.667 133.333C113.222 133.778 114.278 133.722 114.333 133.667C114.778 133.222 113.722 133.278 113.667 133.333z"/>
<path style="fill:#af7c67; stroke:none;" d="M116.667 133.333C116.222 133.778 117.278 133.722 117.333 133.667C117.778 133.222 116.722 133.278 116.667 133.333z"/>
<path style="fill:#e1e1e1; stroke:none;" d="M52.3333 134.667C52.2778 134.722 52.2222 135.778 52.6667 135.333C52.7222 135.278 52.7778 134.222 52.3333 134.667z"/>
<path style="fill:#e9e9e9; stroke:none;" d="M94 134C91.8345 136.293 88.894 137.557 87 140L83 138L82 141C87.1847 142.422 90.9856 140.071 96 139C95.6137 136.857 95.2549 135.75 94 134z"/>
<path style="fill:#a2766e; stroke:none;" d="M114 134L115 135L114 134z"/>
<path style="fill:#bddfd1; stroke:none;" d="M113 135C114.683 135.677 116.178 135.819 118 136C116.349 134.227 115.411 134.548 113 135z"/>
<path style="fill:#bababa; stroke:none;" d="M62 135L62 138C62.6961 136.446 62.6961 136.554 62 135z"/>
<path style="fill:#de0010; stroke:none;" d="M99 139C102.812 138.437 106.343 137.19 110 136C106.488 134.961 101.376 136.173 99 139z"/>
<path style="fill:#fa513b; stroke:none;" d="M111 135L112 136L111 135z"/>
<path style="fill:#6fbd87; stroke:none;" d="M112 135L113 136L112 135z"/>
<path style="fill:#acacac; stroke:none;" d="M68 136L68 141C68.8299 138.97 68.8299 138.03 68 136z"/>
<path style="fill:#d6b2ab; stroke:none;" d="M97 136L97 140C97.7102 138.241 97.7102 137.759 97 136z"/>
<path style="fill:#c61e2a; stroke:none;" d="M98 136L98 139C98.6961 137.446 98.6961 137.554 98 136z"/>
<path style="fill:#ab595f; stroke:none;" d="M108 136L109 137L108 136z"/>
<path style="fill:#aea19d; stroke:none;" d="M109 136L110 137L109 136z"/>
<path style="fill:#adf2e4; stroke:none;" d="M110.667 136.333C110.222 136.778 111.278 136.722 111.333 136.667C111.778 136.222 110.722 136.278 110.667 136.333z"/>
<path style="fill:#d9d7e4; stroke:none;" d="M98 141C99.6932 142.062 101.04 142.52 103 143C106.623 139.978 111.496 138.371 116 137C110.697 135.119 103.086 139.104 98 141z"/>
<path style="fill:#828282; stroke:none;" d="M50 137C46.0377 142.749 41.7334 144.464 36 148C41.8526 149.21 51.0631 143.536 50 137z"/>
<path style="fill:#97f0ce; stroke:none;" d="M96.3333 137.667C96.2778 137.722 96.2222 138.778 96.6667 138.333C96.7222 138.278 96.7778 137.222 96.3333 137.667z"/>
<path style="fill:#bb4a4b; stroke:none;" d="M105 137L106 138L105 137z"/>
<path style="fill:#b99380; stroke:none;" d="M106 137L107 138L106 137z"/>
<path style="fill:#bae6ca; stroke:none;" d="M107.667 137.333C107.222 137.778 108.278 137.722 108.333 137.667C108.778 137.222 107.722 137.278 107.667 137.333z"/>
<path style="fill:#909090; stroke:none;" d="M63 138L63 142C63.7102 140.241 63.7102 139.759 63 138z"/>
<path style="fill:#b6b6b6; stroke:none;" d="M63 152C66.3328 148.554 69.731 148.116 73.8866 146.151C76.005 145.15 77.4425 143.898 76 142L80 139C76.6555 137.843 65.3181 140.322 63.1829 143.444C61.4939 145.914 62.5102 149.32 63 152z"/>
<path style="fill:#a28877; stroke:none;" d="M102.667 138.333C102.222 138.778 103.278 138.722 103.333 138.667C103.778 138.222 102.722 138.278 102.667 138.333z"/>
<path style="fill:#b8d5c8; stroke:none;" d="M104.667 138.333C104.222 138.778 105.278 138.722 105.333 138.667C105.778 138.222 104.722 138.278 104.667 138.333z"/>
<path style="fill:#cdcdcd; stroke:none;" d="M50 139L51 140L50 139z"/>
<path style="fill:#8a8a8a; stroke:none;" d="M78.6667 139.333C78.2222 139.778 79.2778 139.722 79.3333 139.667C79.7778 139.222 78.7222 139.278 78.6667 139.333z"/>
<path style="fill:#bbbbbb; stroke:none;" d="M80 139L81 140L80 139M83 145C88.7738 144.022 94.1261 141.373 100 141C95.8886 137.95 84.153 139.619 83 145z"/>
<path style="fill:#af5d5c; stroke:none;" d="M98.6667 139.333C98.2222 139.778 99.2778 139.722 99.3333 139.667C99.7778 139.222 98.7222 139.278 98.6667 139.333z"/>
<path style="fill:#95b898; stroke:none;" d="M100.667 139.333C100.222 139.778 101.278 139.722 101.333 139.667C101.778 139.222 100.722 139.278 100.667 139.333z"/>
<path style="fill:#9b9b9b; stroke:none;" d="M76 141C77.0043 142.607 77.1965 143.035 77 145C79.2974 144.326 79.7741 144.035 81 142C81.9857 143.479 82 143.203 82 145C83.5015 140.571 79.4132 140.367 76 141z"/>
<path style="fill:#c8c8c8; stroke:none;" d="M81 140L82 141L81 140z"/>
<path style="fill:#c5c5c5; stroke:none;" d="M49 141L50 142L49 141z"/>
<path style="fill:#c3d3cc; stroke:none;" d="M94 141C95.5061 141.683 96.3148 141.826 98 142C96.494 141.317 95.6852 141.174 94 141z"/>
<path style="fill:#d5d5d5; stroke:none;" d="M21 153C27.635 149.303 36.2624 148.773 41 142C35.4306 143.073 22.669 147.502 21 153z"/>
<path style="fill:#7b7b7b; stroke:none;" d="M81 142L80 145C81.7662 144.021 81.9555 143.778 81 142z"/>
<path style="fill:#dbdbdb; stroke:none;" d="M64 153C75.9967 152.484 86.9682 147.248 98 143C90.9703 140.256 78.882 146.032 72 148.333C68.7484 149.42 65.9621 150.133 64 153z"/>
<path style="fill:#cacaca; stroke:none;" d="M48 143L49 144L48 143z"/>
<path style="fill:#cccccc; stroke:none;" d="M47 144L48 145L47 144z"/>
<path style="fill:#ffffff; stroke:none;" d="M264 144L264 152L240 152L240 160L216 160L216 168L192 168L192 176L176 176L176 184L160 184L160 187L270 187L270 144L264 144z"/>
<path style="fill:#cbcbcb; stroke:none;" d="M45 145L46 146L45 145z"/>
<path style="fill:#f6f6f6; stroke:none;" d="M61 145L61 149C58.5445 149.002 55.7074 148.666 53.375 149.583C51.7309 150.23 50.5942 151.677 48.7909 151.978C46.0753 152.432 42.8008 151.874 40 152C40.7679 153.314 40.6858 153.232 42 154L41 157L42 158C47.6904 156.18 64.2391 152.937 61 145z"/>
<path style="fill:#838383; stroke:none;" d="M64 151C69.4465 149.74 74.6876 147.729 80 146C75.3646 144.356 66.7805 146.941 64 151z"/>
<path style="fill:#bdbdbd; stroke:none;" d="M80.6667 145.333C80.2222 145.778 81.2778 145.722 81.3333 145.667C81.7778 145.222 80.7222 145.278 80.6667 145.333z"/>
<path style="fill:#cdcdcd; stroke:none;" d="M43 146L44 147L43 146z"/>
<path style="fill:#e7e7e7; stroke:none;" d="M24 147C26.0521 147.874 27.7472 147.953 30 148C27.9479 147.126 26.2528 147.047 24 147z"/>
<path style="fill:#c4c4c4; stroke:none;" d="M32 148C28.6278 150.049 25.9411 150.884 22 151C23.2598 155.426 25.5568 157.078 30 158C29.3164 156.42 29.1952 156.223 28 155C29.7423 152.868 32.1755 150.781 32 148z"/>
<path style="fill:#9e9e9e; stroke:none;" d="M33 150L36 149C34.2218 148.045 33.9786 148.234 33 150z"/>
<path style="fill:#b5b5b5; stroke:none;" d="M38 148L39 149L38 148z"/>
<path style="fill:#787878; stroke:none;" d="M34.6667 149.333C34.2222 149.778 35.2778 149.722 35.3333 149.667C35.7778 149.222 34.7222 149.278 34.6667 149.333z"/>
<path style="fill:#c2c2c2; stroke:none;" d="M36 149L37 150L36 149z"/>
<path style="fill:#cecece; stroke:none;" d="M62 149C57.2664 153.053 47.335 157.073 41 157C41 158.797 41.0143 158.521 42 160C49.5716 158.417 56.5631 155.03 64 153C63.4038 151.44 62.9114 150.377 62 149z"/>
<path style="fill:#9f9f9f; stroke:none;" d="M31 150C31.0313 151.832 30.9205 151.559 32 153C31.7488 151.548 31.6848 151.248 31 150z"/>
<path style="fill:#808080; stroke:none;" d="M32 150L32 154C32.9114 152.623 33.4038 151.56 34 150L32 150z"/>
<path style="fill:#bebebe; stroke:none;" d="M34 150L35 151L34 150z"/>
<path style="fill:#e4e4e4; stroke:none;" d="M33 151C33.6544 154.054 35.0066 153.936 38 154L33 151z"/>
<path style="fill:#bababa; stroke:none;" d="M30 152L28 154C30.7934 156.54 33.3286 156.115 37 156C34.8674 154.18 32.562 153.171 30 152z"/>
<path style="fill:#e7e7e7; stroke:none;" d="M48 158C53.7333 159.931 58.4166 156.052 64 157C65.1301 155.6 66.2176 154.584 67 153C60.3108 153.157 54.2957 155.951 48 158z"/>
<path style="fill:#acacac; stroke:none;" d="M36 154L38 159C41.0584 156.623 39.0408 154.936 36 154z"/>
<path style="fill:#cfcfcf; stroke:none;" d="M30 157L30 159C33.0957 159.497 34.4002 158.742 37 157C34.4131 155.935 32.679 156.218 30 157z"/>
<path style="fill:#bdbdbd; stroke:none;" d="M37 156C35.6085 157.406 34.9265 158.271 34 160L38 160C37.8259 158.315 37.683 157.506 37 156z"/>
<path style="fill:#acacac; stroke:none;" d="M27 157C29.0236 160.654 31.8792 162.414 36 163C34.7624 161.35 33.3335 161.667 36 161L27 157z"/>
<path style="fill:#797979; stroke:none;" d="M40 157C38.1203 158.909 36.4576 159.911 34 161C36.9182 162.013 39.1336 161.041 42 160C41.3087 158.612 41.0154 158.139 40 157z"/>
<path style="fill:#e5e5e5; stroke:none;" d="M30 161L30 163L32 163L32 161L30 161z"/>
<path style="fill:#cccccc; stroke:none;" d="M27 163L27 165C29.442 164.89 31.6228 164.572 34 164C31.6684 163.015 29.5433 163.019 27 163z"/>
</svg>
